<?xml version="1.0" encoding="utf-8" standalone="no"?>
<!DOCTYPE svg PUBLIC "-//W3C//DTD SVG 1.1//EN"
  "http://www.w3.org/Graphics/SVG/1.1/DTD/svg11.dtd">
<svg xmlns:xlink="http://www.w3.org/1999/xlink" width="1872pt" height="1296pt" viewBox="0 0 1872 1296" xmlns="http://www.w3.org/2000/svg" version="1.1">
 <metadata>
  <rdf:RDF xmlns:dc="http://purl.org/dc/elements/1.1/" xmlns:cc="http://creativecommons.org/ns#" xmlns:rdf="http://www.w3.org/1999/02/22-rdf-syntax-ns#">
   <cc:Work>
    <dc:type rdf:resource="http://purl.org/dc/dcmitype/StillImage"/>
    <dc:date>2024-01-24T01:18:54.458645</dc:date>
    <dc:format>image/svg+xml</dc:format>
    <dc:creator>
     <cc:Agent>
      <dc:title>Matplotlib v3.8.2, https://matplotlib.org/</dc:title>
     </cc:Agent>
    </dc:creator>
   </cc:Work>
  </rdf:RDF>
 </metadata>
 <defs>
  <style type="text/css">*{stroke-linejoin: round; stroke-linecap: butt}</style>
 </defs>
 <g id="figure_1">
  <g id="patch_1">
   <path d="M 0 1296 
L 1872 1296 
L 1872 0 
L 0 0 
z
" style="fill: #ffffff"/>
  </g>
  <g id="axes_1">
   <g id="patch_2">
    <path d="M 198.18 429.974118 
L 1726.2 429.974118 
L 1726.2 96.501176 
L 198.18 96.501176 
z
" style="fill: #ffffff"/>
   </g>
   <g id="PolyCollection_1"/>
   <g id="PolyCollection_2"/>
   <g id="PolyCollection_3"/>
   <g id="matplotlib.axis_1">
    <g id="xtick_1">
     <g id="line2d_1">
      <path d="M 267.635455 429.974118 
L 267.635455 96.501176 
" clip-path="url(#p3f2b09fd0b)" style="fill: none; stroke: #b0b0b0; stroke-width: 0.8; stroke-linecap: square"/>
     </g>
     <g id="line2d_2">
      <defs>
       <path id="mf554d5d006" d="M 0 0 
L 0 3.5 
" style="stroke: #000000; stroke-width: 0.8"/>
      </defs>
      <g>
       <use xlink:href="#mf554d5d006" x="267.635455" y="429.974118" style="stroke: #000000; stroke-width: 0.8"/>
      </g>
     </g>
    </g>
    <g id="xtick_2">
     <g id="line2d_3">
      <path d="M 406.546364 429.974118 
L 406.546364 96.501176 
" clip-path="url(#p3f2b09fd0b)" style="fill: none; stroke: #b0b0b0; stroke-width: 0.8; stroke-linecap: square"/>
     </g>
     <g id="line2d_4">
      <g>
       <use xlink:href="#mf554d5d006" x="406.546364" y="429.974118" style="stroke: #000000; stroke-width: 0.8"/>
      </g>
     </g>
    </g>
    <g id="xtick_3">
     <g id="line2d_5">
      <path d="M 545.457273 429.974118 
L 545.457273 96.501176 
" clip-path="url(#p3f2b09fd0b)" style="fill: none; stroke: #b0b0b0; stroke-width: 0.8; stroke-linecap: square"/>
     </g>
     <g id="line2d_6">
      <g>
       <use xlink:href="#mf554d5d006" x="545.457273" y="429.974118" style="stroke: #000000; stroke-width: 0.8"/>
      </g>
     </g>
    </g>
    <g id="xtick_4">
     <g id="line2d_7">
      <path d="M 684.368182 429.974118 
L 684.368182 96.501176 
" clip-path="url(#p3f2b09fd0b)" style="fill: none; stroke: #b0b0b0; stroke-width: 0.8; stroke-linecap: square"/>
     </g>
     <g id="line2d_8">
      <g>
       <use xlink:href="#mf554d5d006" x="684.368182" y="429.974118" style="stroke: #000000; stroke-width: 0.8"/>
      </g>
     </g>
    </g>
    <g id="xtick_5">
     <g id="line2d_9">
      <path d="M 823.279091 429.974118 
L 823.279091 96.501176 
" clip-path="url(#p3f2b09fd0b)" style="fill: none; stroke: #b0b0b0; stroke-width: 0.8; stroke-linecap: square"/>
     </g>
     <g id="line2d_10">
      <g>
       <use xlink:href="#mf554d5d006" x="823.279091" y="429.974118" style="stroke: #000000; stroke-width: 0.8"/>
      </g>
     </g>
    </g>
    <g id="xtick_6">
     <g id="line2d_11">
      <path d="M 962.19 429.974118 
L 962.19 96.501176 
" clip-path="url(#p3f2b09fd0b)" style="fill: none; stroke: #b0b0b0; stroke-width: 0.8; stroke-linecap: square"/>
     </g>
     <g id="line2d_12">
      <g>
       <use xlink:href="#mf554d5d006" x="962.19" y="429.974118" style="stroke: #000000; stroke-width: 0.8"/>
      </g>
     </g>
    </g>
    <g id="xtick_7">
     <g id="line2d_13">
      <path d="M 1101.100909 429.974118 
L 1101.100909 96.501176 
" clip-path="url(#p3f2b09fd0b)" style="fill: none; stroke: #b0b0b0; stroke-width: 0.8; stroke-linecap: square"/>
     </g>
     <g id="line2d_14">
      <g>
       <use xlink:href="#mf554d5d006" x="1101.100909" y="429.974118" style="stroke: #000000; stroke-width: 0.8"/>
      </g>
     </g>
    </g>
    <g id="xtick_8">
     <g id="line2d_15">
      <path d="M 1240.011818 429.974118 
L 1240.011818 96.501176 
" clip-path="url(#p3f2b09fd0b)" style="fill: none; stroke: #b0b0b0; stroke-width: 0.8; stroke-linecap: square"/>
     </g>
     <g id="line2d_16">
      <g>
       <use xlink:href="#mf554d5d006" x="1240.011818" y="429.974118" style="stroke: #000000; stroke-width: 0.8"/>
      </g>
     </g>
    </g>
    <g id="xtick_9">
     <g id="line2d_17">
      <path d="M 1378.922727 429.974118 
L 1378.922727 96.501176 
" clip-path="url(#p3f2b09fd0b)" style="fill: none; stroke: #b0b0b0; stroke-width: 0.8; stroke-linecap: square"/>
     </g>
     <g id="line2d_18">
      <g>
       <use xlink:href="#mf554d5d006" x="1378.922727" y="429.974118" style="stroke: #000000; stroke-width: 0.8"/>
      </g>
     </g>
    </g>
    <g id="xtick_10">
     <g id="line2d_19">
      <path d="M 1517.833636 429.974118 
L 1517.833636 96.501176 
" clip-path="url(#p3f2b09fd0b)" style="fill: none; stroke: #b0b0b0; stroke-width: 0.8; stroke-linecap: square"/>
     </g>
     <g id="line2d_20">
      <g>
       <use xlink:href="#mf554d5d006" x="1517.833636" y="429.974118" style="stroke: #000000; stroke-width: 0.8"/>
      </g>
     </g>
    </g>
    <g id="xtick_11">
     <g id="line2d_21">
      <path d="M 1656.744545 429.974118 
L 1656.744545 96.501176 
" clip-path="url(#p3f2b09fd0b)" style="fill: none; stroke: #b0b0b0; stroke-width: 0.8; stroke-linecap: square"/>
     </g>
     <g id="line2d_22">
      <g>
       <use xlink:href="#mf554d5d006" x="1656.744545" y="429.974118" style="stroke: #000000; stroke-width: 0.8"/>
      </g>
     </g>
    </g>
   </g>
   <g id="matplotlib.axis_2">
    <g id="ytick_1">
     <g id="line2d_23">
      <path d="M 198.18 140.374976 
L 1726.2 140.374976 
" clip-path="url(#p3f2b09fd0b)" style="fill: none; stroke: #b0b0b0; stroke-width: 0.8; stroke-linecap: square"/>
     </g>
     <g id="line2d_24">
      <defs>
       <path id="m26f55a2d0b" d="M 0 0 
L -3.5 0 
" style="stroke: #000000; stroke-width: 0.8"/>
      </defs>
      <g>
       <use xlink:href="#m26f55a2d0b" x="198.18" y="140.374976" style="stroke: #000000; stroke-width: 0.8"/>
      </g>
     </g>
     <g id="text_1">
      <!-- 0.0 -->
      <g transform="translate(135.519063 153.672242) scale(0.35 -0.35)">
       <defs>
        <path id="DejaVuSans-30" d="M 2034 4250 
Q 1547 4250 1301 3770 
Q 1056 3291 1056 2328 
Q 1056 1369 1301 889 
Q 1547 409 2034 409 
Q 2525 409 2770 889 
Q 3016 1369 3016 2328 
Q 3016 3291 2770 3770 
Q 2525 4250 2034 4250 
z
M 2034 4750 
Q 2819 4750 3233 4129 
Q 3647 3509 3647 2328 
Q 3647 1150 3233 529 
Q 2819 -91 2034 -91 
Q 1250 -91 836 529 
Q 422 1150 422 2328 
Q 422 3509 836 4129 
Q 1250 4750 2034 4750 
z
" transform="scale(0.015625)"/>
        <path id="DejaVuSans-2e" d="M 684 794 
L 1344 794 
L 1344 0 
L 684 0 
L 684 794 
z
" transform="scale(0.015625)"/>
       </defs>
       <use xlink:href="#DejaVuSans-30"/>
       <use xlink:href="#DejaVuSans-2e" x="63.623047"/>
       <use xlink:href="#DejaVuSans-30" x="95.410156"/>
      </g>
     </g>
    </g>
    <g id="ytick_2">
     <g id="line2d_25">
      <path d="M 198.18 320.161985 
L 1726.2 320.161985 
" clip-path="url(#p3f2b09fd0b)" style="fill: none; stroke: #b0b0b0; stroke-width: 0.8; stroke-linecap: square"/>
     </g>
     <g id="line2d_26">
      <g>
       <use xlink:href="#m26f55a2d0b" x="198.18" y="320.161985" style="stroke: #000000; stroke-width: 0.8"/>
      </g>
     </g>
     <g id="text_2">
      <!-- −0.1 -->
      <g transform="translate(106.190156 333.459251) scale(0.35 -0.35)">
       <defs>
        <path id="DejaVuSans-2212" d="M 678 2272 
L 4684 2272 
L 4684 1741 
L 678 1741 
L 678 2272 
z
" transform="scale(0.015625)"/>
        <path id="DejaVuSans-31" d="M 794 531 
L 1825 531 
L 1825 4091 
L 703 3866 
L 703 4441 
L 1819 4666 
L 2450 4666 
L 2450 531 
L 3481 531 
L 3481 0 
L 794 0 
L 794 531 
z
" transform="scale(0.015625)"/>
       </defs>
       <use xlink:href="#DejaVuSans-2212"/>
       <use xlink:href="#DejaVuSans-30" x="83.789062"/>
       <use xlink:href="#DejaVuSans-2e" x="147.412109"/>
       <use xlink:href="#DejaVuSans-31" x="179.199219"/>
      </g>
     </g>
    </g>
    <g id="text_3">
     <!-- X -->
     <g transform="translate(99.219894 275.225147) rotate(-90) scale(0.35 -0.35)">
      <defs>
       <path id="DejaVuSans-58" d="M 403 4666 
L 1081 4666 
L 2241 2931 
L 3406 4666 
L 4084 4666 
L 2584 2425 
L 4184 0 
L 3506 0 
L 2194 1984 
L 872 0 
L 191 0 
L 1856 2491 
L 403 4666 
z
" transform="scale(0.015625)"/>
      </defs>
      <use xlink:href="#DejaVuSans-58"/>
     </g>
    </g>
   </g>
   <g id="line2d_27">
    <path d="M 267.774365 140.374976 
L 1654.660882 140.374976 
L 1654.660882 140.374976 
" clip-path="url(#p3f2b09fd0b)" style="fill: none; stroke-dasharray: 51.2,12.8,8,12.8; stroke-dashoffset: 0; stroke: #000000; stroke-width: 8"/>
   </g>
   <g id="line2d_28">
    <path d="M 267.635455 163.159337 
L 275.831198 161.57079 
L 284.304764 160.161741 
L 294.44526 158.708177 
L 304.307935 157.5081 
L 315.142985 156.423768 
L 328.617344 155.306805 
L 341.397147 154.491606 
L 359.177744 153.599525 
L 375.013587 153.026728 
L 399.184085 152.391544 
L 427.244089 151.932072 
L 428.633198 152.002569 
L 429.188842 152.463666 
L 429.744485 153.277519 
L 430.43904 154.787027 
L 431.133595 156.835133 
L 431.96706 159.993466 
L 432.939436 164.626419 
L 434.050724 171.138382 
L 435.717655 182.615346 
L 437.940229 199.335053 
L 440.579536 220.970934 
L 444.052309 249.568698 
L 446.969438 271.839276 
L 449.469835 289.315552 
L 451.692409 303.308858 
L 453.637162 314.247082 
L 455.443004 323.226452 
L 456.971024 329.762647 
L 458.360133 334.808254 
L 459.610331 338.612404 
L 460.860529 341.714454 
L 461.832905 343.600575 
L 462.666371 344.78656 
L 463.360925 345.462516 
L 464.05548 345.851139 
L 464.750035 345.952275 
L 465.305678 345.827848 
L 466.000233 345.417668 
L 466.694787 344.726875 
L 467.528253 343.531097 
L 468.361718 341.939355 
L 469.473005 339.264395 
L 470.862115 335.283076 
L 472.390135 330.131173 
L 474.057065 323.627464 
L 476.001818 315.037846 
L 478.780036 301.761643 
L 482.252809 283.975694 
L 489.615087 246.188584 
L 493.226771 228.861786 
L 496.560633 214.000276 
L 499.477762 201.974457 
L 501.978158 192.567487 
L 504.617465 183.453477 
L 506.978951 176.09419 
L 509.618258 168.702155 
L 511.840833 163.09238 
L 513.924496 158.434303 
L 516.563804 153.150407 
L 518.786378 149.158909 
L 520.870042 145.869956 
L 523.509349 142.140154 
L 525.731924 139.371996 
L 527.676676 137.286463 
L 530.177073 134.922236 
L 532.260736 133.242213 
L 534.3444 131.862329 
L 537.261529 130.192323 
L 539.623015 129.07114 
L 541.845589 128.26921 
L 544.345985 127.592342 
L 546.429649 127.247202 
L 548.513313 127.138 
L 551.291531 127.209909 
L 553.791927 127.505626 
L 559.626185 128.642387 
L 570.044504 131.235286 
L 573.100544 132.267939 
L 576.156584 133.556668 
L 579.490445 135.174902 
L 584.76906 137.858591 
L 588.102922 139.261588 
L 590.325496 139.92695 
L 592.686982 140.394593 
L 595.4652 140.703715 
L 601.299458 141.063789 
L 607.550449 141.542848 
L 613.245796 142.280185 
L 616.718569 142.962827 
L 621.997184 144.197819 
L 624.775402 144.819558 
L 627.831442 145.265732 
L 630.748571 145.487665 
L 634.221344 145.513233 
L 639.77778 145.295145 
L 645.750949 145.125579 
L 649.918276 145.213038 
L 654.919069 145.504616 
L 659.780951 145.782159 
L 667.143229 145.953296 
L 673.116398 145.850881 
L 678.811745 145.45683 
L 690.480262 144.52175 
L 696.036698 144.36564 
L 703.121155 144.485471 
L 703.676798 144.789935 
L 704.371353 145.449491 
L 705.065907 146.41075 
L 705.899373 147.956871 
L 706.871749 150.294885 
L 707.983036 153.658361 
L 709.094324 157.739879 
L 710.344522 163.160188 
L 711.872542 170.861565 
L 713.539473 180.546706 
L 715.345315 192.440549 
L 717.428978 207.853997 
L 719.651553 226.058314 
L 722.151949 248.448198 
L 725.3469 279.323202 
L 732.431356 348.057051 
L 734.653931 366.82721 
L 736.737595 382.548158 
L 738.126704 391.566191 
L 739.376902 398.400974 
L 740.6271 404.005625 
L 741.738387 407.937237 
L 742.710764 410.551461 
L 743.544229 412.205051 
L 744.377695 413.447643 
L 745.21116 414.293135 
L 745.905715 414.693647 
L 746.600269 414.816257 
L 747.155913 414.713165 
L 747.850467 414.331384 
L 748.545022 413.666928 
L 749.378487 412.503391 
L 750.906507 409.899686 
L 752.573438 406.601709 
L 754.37928 402.530178 
L 756.601855 396.914644 
L 759.935716 388.645794 
L 762.436113 383.027289 
L 765.07542 377.675319 
L 767.853638 372.490802 
L 770.354035 368.294958 
L 773.687896 362.643875 
L 777.021758 356.588404 
L 779.244333 352.020582 
L 781.605818 346.625016 
L 784.384036 339.657582 
L 787.717898 330.678181 
L 798.830771 300.02814 
L 802.164633 291.763878 
L 805.359584 284.430784 
L 808.693445 277.309303 
L 812.027307 270.723915 
L 815.50008 264.318161 
L 819.111764 258.136041 
L 823.001269 251.897072 
L 827.029685 245.86709 
L 830.78028 240.647257 
L 834.669785 235.609283 
L 838.281469 231.280872 
L 842.170975 226.954873 
L 846.199391 222.819901 
L 850.366718 218.856193 
L 855.089689 214.680139 
L 859.951571 210.69807 
L 864.952364 206.894898 
L 870.647711 202.876389 
L 876.204147 199.248891 
L 882.316227 195.547263 
L 888.983951 191.789168 
L 895.512764 188.363708 
L 902.319398 185.055122 
L 908.987122 182.066685 
L 916.071578 179.14645 
L 923.9895 176.139694 
L 931.768511 173.422967 
L 939.2697 171.031656 
L 946.354156 169.001484 
L 954.410989 166.924324 
L 963.579109 164.784532 
L 971.635942 163.127169 
L 980.665151 161.51174 
L 991.22238 159.846426 
L 1000.3905 158.616421 
L 1011.503373 157.363118 
L 1024.560998 156.106509 
L 1037.896445 155.100932 
L 1051.092982 154.281196 
L 1069.429222 153.430596 
L 1084.570511 152.908969 
L 1108.87992 152.285665 
L 1119.020416 152.167713 
L 1119.57606 152.468647 
L 1120.131704 153.031967 
L 1120.826258 154.099376 
L 1121.520813 155.568017 
L 1122.354278 157.853393 
L 1123.326655 161.22919 
L 1124.437942 166.001177 
L 1125.68814 172.496154 
L 1127.21616 181.796739 
L 1129.022002 194.247913 
L 1130.966755 209.283511 
L 1133.32824 229.40282 
L 1137.356656 265.782803 
L 1141.801805 305.386174 
L 1144.580024 327.88315 
L 1146.246955 339.841566 
L 1147.636064 348.185607 
L 1148.886262 354.292398 
L 1149.997549 358.600795 
L 1150.969925 361.506272 
L 1151.803391 363.354763 
L 1152.497945 364.442648 
L 1153.1925 365.136134 
L 1153.748144 365.419809 
L 1154.303787 365.462654 
L 1154.859431 365.265844 
L 1155.415075 364.830504 
L 1156.109629 363.952606 
L 1156.804184 362.705941 
L 1157.637649 360.726213 
L 1158.610025 357.754193 
L 1159.999135 352.568756 
L 1161.527155 345.961247 
L 1163.194085 337.71139 
L 1164.999927 327.60592 
L 1172.778938 282.643852 
L 1175.834978 266.537722 
L 1178.474285 253.813168 
L 1183.058345 233.345966 
L 1186.670029 218.162789 
L 1190.837356 201.505751 
L 1194.310129 188.571225 
L 1197.366169 178.016315 
L 1199.866565 170.129 
L 1202.505873 162.525148 
L 1204.728447 156.768037 
L 1206.812111 151.972304 
L 1209.034685 147.386614 
L 1210.979438 143.863942 
L 1212.78528 141.050414 
L 1215.007855 137.999939 
L 1217.091518 135.506443 
L 1218.89736 133.677204 
L 1221.536667 131.342599 
L 1223.759242 129.664515 
L 1225.842905 128.369355 
L 1228.760035 126.810938 
L 1231.12152 125.784593 
L 1233.205184 125.113994 
L 1235.844491 124.49858 
L 1237.928155 124.227181 
L 1240.28964 124.164403 
L 1242.928947 124.284909 
L 1245.151522 124.596664 
L 1247.096275 124.96529 
L 1251.124691 125.896246 
L 1262.793207 129.159591 
L 1266.26598 130.38397 
L 1270.155485 132.005866 
L 1274.183902 133.977056 
L 1280.434893 136.901064 
L 1282.657467 137.650611 
L 1285.157864 138.251065 
L 1288.213904 138.731767 
L 1292.797964 139.198272 
L 1300.576975 139.977546 
L 1304.883213 140.62524 
L 1313.912422 142.394187 
L 1321.135789 143.864496 
L 1324.052918 144.243057 
L 1327.525691 144.463493 
L 1330.998464 144.451532 
L 1336.832722 144.162945 
L 1342.944802 143.936509 
L 1347.389951 143.938134 
L 1352.668565 144.231687 
L 1362.670151 145.050009 
L 1366.281835 145.010428 
L 1370.449162 144.730354 
L 1382.673322 143.779815 
L 1386.840649 143.731329 
L 1399.064809 143.76838 
L 1399.481542 143.789172 
L 1400.037185 144.026334 
L 1400.73174 144.617622 
L 1401.426295 145.522855 
L 1402.25976 147.012152 
L 1403.232136 149.298461 
L 1404.204513 152.166825 
L 1405.3158 156.1424 
L 1406.565998 161.477115 
L 1407.955107 168.427034 
L 1409.483127 177.171445 
L 1411.288969 188.905156 
L 1413.233722 203.095206 
L 1415.317385 219.938842 
L 1417.678871 240.853783 
L 1420.457089 267.590813 
L 1425.874615 320.008835 
L 1429.069565 348.873494 
L 1431.153229 365.590765 
L 1432.959071 378.425959 
L 1434.626002 388.819668 
L 1436.015111 396.11549 
L 1437.265309 401.542406 
L 1438.376596 405.446294 
L 1439.348973 408.140664 
L 1440.182438 409.906163 
L 1441.154815 411.466683 
L 1441.98828 412.436489 
L 1442.821745 413.068879 
L 1443.5163 413.337305 
L 1444.210855 413.369719 
L 1444.905409 413.165153 
L 1445.599964 412.722623 
L 1446.433429 411.878212 
L 1447.822538 410.052369 
L 1449.767291 407.080045 
L 1451.989865 403.260025 
L 1454.629173 398.248643 
L 1461.713629 384.079227 
L 1468.659175 369.829502 
L 1471.854125 362.778091 
L 1475.326898 354.57906 
L 1478.799671 345.768209 
L 1482.966998 334.544682 
L 1493.107495 307.100815 
L 1497.135911 297.008928 
L 1500.886505 288.184323 
L 1504.498189 280.263674 
L 1508.109873 272.866637 
L 1511.721556 266.00389 
L 1515.33324 259.583069 
L 1519.361656 252.90017 
L 1523.112251 247.093644 
L 1527.001756 241.499198 
L 1530.61344 236.697492 
L 1534.364035 232.073729 
L 1538.114629 227.812016 
L 1542.004135 223.712029 
L 1546.449284 219.376395 
L 1550.616611 215.6128 
L 1555.06176 211.890952 
L 1559.923642 208.131914 
L 1565.202256 204.344787 
L 1570.897604 200.528761 
L 1576.731862 196.879233 
L 1582.56612 193.490834 
L 1588.956022 190.04734 
L 1595.762656 186.638398 
L 1602.847113 183.344416 
L 1609.653747 180.418615 
L 1616.738204 177.610774 
L 1623.683749 175.092354 
L 1631.184938 172.601954 
L 1639.380682 170.102783 
L 1647.576425 167.835118 
L 1655.355436 165.919262 
L 1656.605635 165.633399 
L 1656.605635 165.633399 
" clip-path="url(#p3f2b09fd0b)" style="fill: none; stroke: #de8f05; stroke-width: 8; stroke-linecap: square"/>
   </g>
   <g id="line2d_29">
    <path d="M 267.774365 161.918189 
L 277.359218 160.202906 
L 285.832784 158.899206 
L 297.640211 157.341193 
L 307.919618 156.17725 
L 318.476847 155.216681 
L 333.895958 154.025189 
L 346.120118 153.337504 
L 364.595269 152.498653 
L 384.459529 151.837218 
L 407.657651 151.368768 
L 430.43904 151.054194 
L 431.411416 151.289798 
L 432.383793 151.767121 
L 433.356169 152.481676 
L 434.467456 153.577845 
L 435.717655 155.146384 
L 436.967853 157.054879 
L 438.356962 159.592305 
L 439.884982 162.842319 
L 441.690824 167.218978 
L 443.774487 172.863267 
L 445.997062 179.544549 
L 448.636369 188.226496 
L 453.637162 205.007126 
L 456.554291 213.918884 
L 458.637955 219.700363 
L 460.443796 224.040977 
L 462.110727 227.490296 
L 463.777658 230.418159 
L 465.027856 232.204478 
L 466.139144 233.423142 
L 467.250431 234.300746 
L 468.222807 234.795807 
L 469.195184 235.043021 
L 470.16756 235.047372 
L 471.139936 234.801742 
L 472.112313 234.307434 
L 473.084689 233.572531 
L 474.195976 232.448755 
L 475.446175 230.837352 
L 476.835284 228.638076 
L 478.363304 225.753402 
L 480.169145 221.832364 
L 482.252809 216.762081 
L 484.614295 210.422462 
L 488.364889 199.604189 
L 498.783207 169.132053 
L 502.25598 159.910575 
L 505.034198 153.12775 
L 508.090238 146.31547 
L 510.590635 141.26385 
L 513.229942 136.450071 
L 515.869249 132.064582 
L 518.230735 128.574295 
L 520.870042 125.080823 
L 523.092616 122.478038 
L 525.315191 120.212768 
L 527.815587 117.957692 
L 530.038162 116.225074 
L 532.121825 114.880281 
L 534.483311 113.658699 
L 536.566975 112.819895 
L 538.511727 112.275724 
L 541.012124 111.833901 
L 543.234698 111.663975 
L 545.457273 111.723168 
L 548.930045 112.01628 
L 551.986085 112.504824 
L 557.820344 113.658514 
L 561.987671 114.786271 
L 565.182622 115.865964 
L 569.905593 117.753707 
L 575.045296 120.120696 
L 582.685396 123.491844 
L 587.8251 125.478746 
L 595.4652 128.073641 
L 612.829064 133.672393 
L 617.413124 134.762518 
L 621.719362 135.610451 
L 630.192927 136.942268 
L 640.611245 138.447945 
L 645.334216 138.838981 
L 662.975902 139.952777 
L 670.199269 140.068043 
L 677.97828 140.243976 
L 688.257687 140.492593 
L 697.425807 140.340067 
L 706.593927 140.323225 
L 708.53868 140.443708 
L 710.0667 140.897033 
L 711.733631 141.630147 
L 714.095116 142.929718 
L 715.206404 143.78487 
L 716.317691 144.912701 
L 717.7068 146.67349 
L 719.23482 148.995741 
L 720.901751 151.932376 
L 722.151949 154.592632 
L 723.541058 158.087075 
L 725.069078 162.552698 
L 726.736009 168.131906 
L 728.680762 175.569667 
L 730.625515 183.991539 
L 732.709178 194.052411 
L 736.04304 211.561568 
L 743.127496 248.794057 
L 745.350071 258.846114 
L 747.433735 267.215605 
L 749.239576 273.597817 
L 750.906507 278.732282 
L 752.434527 282.790056 
L 753.962547 286.220852 
L 755.351656 288.808125 
L 756.740765 290.937056 
L 757.990964 292.464149 
L 759.102251 293.512438 
L 760.213538 294.270579 
L 761.324825 294.756131 
L 762.436113 295.026485 
L 763.686311 295.097985 
L 764.936509 294.932666 
L 766.186707 294.532417 
L 767.436905 293.899771 
L 768.826015 292.928203 
L 770.354035 291.571991 
L 772.020965 289.795823 
L 773.826807 287.533073 
L 775.77156 284.721019 
L 778.549778 280.257624 
L 781.466907 275.138622 
L 786.189878 266.275953 
L 797.024929 245.850245 
L 801.192256 238.558047 
L 805.081762 232.179968 
L 808.832356 226.438367 
L 812.44404 221.304921 
L 816.055724 216.546212 
L 819.667407 212.15242 
L 823.279091 208.104148 
L 826.890775 204.4015 
L 830.363547 201.149559 
L 834.114142 197.959213 
L 837.864736 195.052587 
L 842.170975 192.006191 
L 846.477213 189.232085 
L 850.783451 186.715482 
L 855.506422 184.221023 
L 860.507215 181.844626 
L 866.063651 179.452524 
L 872.453553 176.937048 
L 878.982365 174.593301 
L 885.372267 172.535652 
L 893.568011 170.132512 
L 901.902665 167.890381 
L 909.542765 166.066116 
L 920.93346 163.628863 
L 930.10158 161.860958 
L 939.2697 160.345671 
L 951.771682 158.506389 
L 961.217624 157.311574 
L 972.052675 156.18682 
L 987.471785 154.815498 
L 998.445747 154.028065 
L 1015.6707 153.062929 
L 1029.42288 152.454204 
L 1049.842784 151.792132 
L 1079.291896 151.213744 
L 1114.297445 150.844292 
L 1123.465565 150.849769 
L 1124.437942 151.15939 
L 1125.410318 151.711599 
L 1126.521605 152.630922 
L 1127.632893 153.843779 
L 1128.883091 155.534941 
L 1130.2722 157.804399 
L 1131.661309 160.509286 
L 1133.32824 164.270825 
L 1135.272993 169.267918 
L 1137.495567 175.635928 
L 1139.995964 183.541889 
L 1142.913093 193.558482 
L 1146.385865 205.42093 
L 1149.164084 214.080443 
L 1151.525569 220.742363 
L 1153.1925 224.803217 
L 1154.859431 228.290123 
L 1156.387451 230.994015 
L 1157.637649 232.814761 
L 1158.748936 234.078716 
L 1159.860224 235.015535 
L 1160.8326 235.573864 
L 1161.804976 235.895069 
L 1162.777353 235.983115 
L 1163.610818 235.859358 
L 1164.583195 235.476502 
L 1165.555571 234.843588 
L 1166.666858 233.824033 
L 1167.778145 232.500569 
L 1169.028344 230.664066 
L 1170.556364 227.984282 
L 1172.223295 224.599111 
L 1174.168047 220.116057 
L 1176.390622 214.379325 
L 1179.446662 205.759089 
L 1184.030722 192.060699 
L 1189.86498 174.782018 
L 1193.615575 164.364481 
L 1196.810525 156.154086 
L 1200.005476 148.545731 
L 1202.644784 142.813056 
L 1205.423002 137.350683 
L 1207.784487 133.188115 
L 1210.007062 129.715735 
L 1212.368547 126.409422 
L 1214.452211 123.858884 
L 1216.674785 121.512881 
L 1218.89736 119.473611 
L 1220.842113 117.976003 
L 1223.48142 116.286496 
L 1225.842905 115.037849 
L 1227.926569 114.187681 
L 1230.704787 113.316689 
L 1233.066273 112.80635 
L 1235.288847 112.554914 
L 1238.622709 112.395523 
L 1241.400927 112.475027 
L 1244.318056 112.805095 
L 1247.096275 113.316134 
L 1250.430136 114.192167 
L 1253.625087 115.24743 
L 1258.209147 117.070069 
L 1273.211525 122.999104 
L 1287.65826 128.384245 
L 1292.659053 130.218095 
L 1298.3544 132.062788 
L 1303.771925 133.537763 
L 1308.911629 134.645063 
L 1318.496482 136.437103 
L 1328.9148 138.18847 
L 1335.02688 138.971905 
L 1341.277871 139.518893 
L 1346.695396 139.789218 
L 1366.281835 140.510921 
L 1381.839856 140.601106 
L 1390.174511 140.693962 
L 1400.453918 140.487718 
L 1401.009562 140.443068 
L 1402.120849 140.57315 
L 1403.509958 140.963954 
L 1405.176889 141.68986 
L 1406.982731 142.724216 
L 1408.094018 143.639557 
L 1409.066395 144.698556 
L 1410.177682 146.222932 
L 1411.42788 148.311056 
L 1412.9559 151.34452 
L 1414.622831 155.204458 
L 1416.150851 159.345466 
L 1417.817782 164.527121 
L 1419.762535 171.372425 
L 1421.846198 179.583305 
L 1424.207684 189.838729 
L 1426.846991 202.375382 
L 1435.598378 245.17411 
L 1438.237685 256.891798 
L 1440.599171 266.398311 
L 1442.821745 274.427258 
L 1444.627587 280.145209 
L 1446.294518 284.739586 
L 1447.822538 288.364874 
L 1449.350558 291.427469 
L 1450.739667 293.745735 
L 1452.128776 295.62363 
L 1453.378975 296.93595 
L 1454.490262 297.801737 
L 1455.601549 298.398123 
L 1456.712836 298.77133 
L 1457.963035 298.942361 
L 1459.074322 298.882286 
L 1460.32452 298.577477 
L 1461.574718 298.023615 
L 1462.824916 297.225721 
L 1464.352936 295.978792 
L 1466.019867 294.305436 
L 1467.686798 292.313367 
L 1469.631551 289.618619 
L 1471.993036 285.962 
L 1474.493433 281.67536 
L 1478.105116 274.957245 
L 1482.689176 265.933382 
L 1490.468187 250.707533 
L 1494.774425 242.814503 
L 1498.802842 235.883921 
L 1502.692347 229.633113 
L 1506.442942 224.02399 
L 1510.054625 219.016189 
L 1513.666309 214.384237 
L 1517.277993 210.114104 
L 1520.750765 206.336726 
L 1524.362449 202.743672 
L 1527.835222 199.589327 
L 1531.724727 196.384223 
L 1535.475322 193.57165 
L 1539.78156 190.627414 
L 1544.087798 187.957808 
L 1548.671858 185.363054 
L 1553.672651 182.803778 
L 1558.812355 180.44121 
L 1564.22988 178.192809 
L 1570.34196 175.889182 
L 1577.426416 173.447918 
L 1584.510873 171.219402 
L 1591.456418 169.26462 
L 1600.068895 167.082681 
L 1611.042856 164.545328 
L 1618.821867 162.975926 
L 1629.656918 161.055816 
L 1640.769791 159.291433 
L 1650.076822 158.02993 
L 1656.744545 157.240441 
L 1656.744545 157.240441 
" clip-path="url(#p3f2b09fd0b)" style="fill: none; stroke: #029e73; stroke-width: 8; stroke-linecap: square"/>
   </g>
   <g id="line2d_30"/>
   <g id="line2d_31"/>
   <g id="patch_3">
    <path d="M 198.18 429.974118 
L 198.18 96.501176 
" style="fill: none; stroke: #000000; stroke-width: 0.8; stroke-linejoin: miter; stroke-linecap: square"/>
   </g>
   <g id="patch_4">
    <path d="M 1726.2 429.974118 
L 1726.2 96.501176 
" style="fill: none; stroke: #000000; stroke-width: 0.8; stroke-linejoin: miter; stroke-linecap: square"/>
   </g>
   <g id="patch_5">
    <path d="M 198.18 429.974118 
L 1726.2 429.974118 
" style="fill: none; stroke: #000000; stroke-width: 0.8; stroke-linejoin: miter; stroke-linecap: square"/>
   </g>
   <g id="patch_6">
    <path d="M 198.18 96.501176 
L 1726.2 96.501176 
" style="fill: none; stroke: #000000; stroke-width: 0.8; stroke-linejoin: miter; stroke-linecap: square"/>
   </g>
   <g id="legend_1">
    <g id="patch_7">
     <path d="M 489.617188 84.840963 
L 1722.2 84.840963 
Q 1728.2 84.840963 1728.2 78.840963 
L 1728.2 37.806588 
Q 1728.2 31.806588 1722.2 31.806588 
L 489.617188 31.806588 
Q 483.617188 31.806588 483.617188 37.806588 
L 483.617188 78.840963 
Q 483.617188 84.840963 489.617188 84.840963 
z
" style="fill: #4d4d4d; opacity: 0.5; stroke: #4d4d4d; stroke-linejoin: miter"/>
    </g>
    <g id="patch_8">
     <path d="M 487.617188 82.840963 
L 1720.2 82.840963 
Q 1726.2 82.840963 1726.2 76.840963 
L 1726.2 35.806588 
Q 1726.2 29.806588 1720.2 29.806588 
L 487.617188 29.806588 
Q 481.617188 29.806588 481.617188 35.806588 
L 481.617188 76.840963 
Q 481.617188 82.840963 487.617188 82.840963 
z
" style="fill: #ffffff; stroke: #cccccc; stroke-linejoin: miter"/>
    </g>
    <g id="line2d_32">
     <path d="M 493.617188 54.101901 
L 523.617188 54.101901 
L 553.617188 54.101901 
" style="fill: none; stroke: #de8f05; stroke-width: 8; stroke-linecap: square"/>
    </g>
    <g id="text_4">
     <!-- Obstacle avoiding trajectory -->
     <g transform="translate(577.617188 64.601901) scale(0.3 -0.3)">
      <defs>
       <path id="DejaVuSans-4f" d="M 2522 4238 
Q 1834 4238 1429 3725 
Q 1025 3213 1025 2328 
Q 1025 1447 1429 934 
Q 1834 422 2522 422 
Q 3209 422 3611 934 
Q 4013 1447 4013 2328 
Q 4013 3213 3611 3725 
Q 3209 4238 2522 4238 
z
M 2522 4750 
Q 3503 4750 4090 4092 
Q 4678 3434 4678 2328 
Q 4678 1225 4090 567 
Q 3503 -91 2522 -91 
Q 1538 -91 948 565 
Q 359 1222 359 2328 
Q 359 3434 948 4092 
Q 1538 4750 2522 4750 
z
" transform="scale(0.015625)"/>
       <path id="DejaVuSans-62" d="M 3116 1747 
Q 3116 2381 2855 2742 
Q 2594 3103 2138 3103 
Q 1681 3103 1420 2742 
Q 1159 2381 1159 1747 
Q 1159 1113 1420 752 
Q 1681 391 2138 391 
Q 2594 391 2855 752 
Q 3116 1113 3116 1747 
z
M 1159 2969 
Q 1341 3281 1617 3432 
Q 1894 3584 2278 3584 
Q 2916 3584 3314 3078 
Q 3713 2572 3713 1747 
Q 3713 922 3314 415 
Q 2916 -91 2278 -91 
Q 1894 -91 1617 61 
Q 1341 213 1159 525 
L 1159 0 
L 581 0 
L 581 4863 
L 1159 4863 
L 1159 2969 
z
" transform="scale(0.015625)"/>
       <path id="DejaVuSans-73" d="M 2834 3397 
L 2834 2853 
Q 2591 2978 2328 3040 
Q 2066 3103 1784 3103 
Q 1356 3103 1142 2972 
Q 928 2841 928 2578 
Q 928 2378 1081 2264 
Q 1234 2150 1697 2047 
L 1894 2003 
Q 2506 1872 2764 1633 
Q 3022 1394 3022 966 
Q 3022 478 2636 193 
Q 2250 -91 1575 -91 
Q 1294 -91 989 -36 
Q 684 19 347 128 
L 347 722 
Q 666 556 975 473 
Q 1284 391 1588 391 
Q 1994 391 2212 530 
Q 2431 669 2431 922 
Q 2431 1156 2273 1281 
Q 2116 1406 1581 1522 
L 1381 1569 
Q 847 1681 609 1914 
Q 372 2147 372 2553 
Q 372 3047 722 3315 
Q 1072 3584 1716 3584 
Q 2034 3584 2315 3537 
Q 2597 3491 2834 3397 
z
" transform="scale(0.015625)"/>
       <path id="DejaVuSans-74" d="M 1172 4494 
L 1172 3500 
L 2356 3500 
L 2356 3053 
L 1172 3053 
L 1172 1153 
Q 1172 725 1289 603 
Q 1406 481 1766 481 
L 2356 481 
L 2356 0 
L 1766 0 
Q 1100 0 847 248 
Q 594 497 594 1153 
L 594 3053 
L 172 3053 
L 172 3500 
L 594 3500 
L 594 4494 
L 1172 4494 
z
" transform="scale(0.015625)"/>
       <path id="DejaVuSans-61" d="M 2194 1759 
Q 1497 1759 1228 1600 
Q 959 1441 959 1056 
Q 959 750 1161 570 
Q 1363 391 1709 391 
Q 2188 391 2477 730 
Q 2766 1069 2766 1631 
L 2766 1759 
L 2194 1759 
z
M 3341 1997 
L 3341 0 
L 2766 0 
L 2766 531 
Q 2569 213 2275 61 
Q 1981 -91 1556 -91 
Q 1019 -91 701 211 
Q 384 513 384 1019 
Q 384 1609 779 1909 
Q 1175 2209 1959 2209 
L 2766 2209 
L 2766 2266 
Q 2766 2663 2505 2880 
Q 2244 3097 1772 3097 
Q 1472 3097 1187 3025 
Q 903 2953 641 2809 
L 641 3341 
Q 956 3463 1253 3523 
Q 1550 3584 1831 3584 
Q 2591 3584 2966 3190 
Q 3341 2797 3341 1997 
z
" transform="scale(0.015625)"/>
       <path id="DejaVuSans-63" d="M 3122 3366 
L 3122 2828 
Q 2878 2963 2633 3030 
Q 2388 3097 2138 3097 
Q 1578 3097 1268 2742 
Q 959 2388 959 1747 
Q 959 1106 1268 751 
Q 1578 397 2138 397 
Q 2388 397 2633 464 
Q 2878 531 3122 666 
L 3122 134 
Q 2881 22 2623 -34 
Q 2366 -91 2075 -91 
Q 1284 -91 818 406 
Q 353 903 353 1747 
Q 353 2603 823 3093 
Q 1294 3584 2113 3584 
Q 2378 3584 2631 3529 
Q 2884 3475 3122 3366 
z
" transform="scale(0.015625)"/>
       <path id="DejaVuSans-6c" d="M 603 4863 
L 1178 4863 
L 1178 0 
L 603 0 
L 603 4863 
z
" transform="scale(0.015625)"/>
       <path id="DejaVuSans-65" d="M 3597 1894 
L 3597 1613 
L 953 1613 
Q 991 1019 1311 708 
Q 1631 397 2203 397 
Q 2534 397 2845 478 
Q 3156 559 3463 722 
L 3463 178 
Q 3153 47 2828 -22 
Q 2503 -91 2169 -91 
Q 1331 -91 842 396 
Q 353 884 353 1716 
Q 353 2575 817 3079 
Q 1281 3584 2069 3584 
Q 2775 3584 3186 3129 
Q 3597 2675 3597 1894 
z
M 3022 2063 
Q 3016 2534 2758 2815 
Q 2500 3097 2075 3097 
Q 1594 3097 1305 2825 
Q 1016 2553 972 2059 
L 3022 2063 
z
" transform="scale(0.015625)"/>
       <path id="DejaVuSans-20" transform="scale(0.015625)"/>
       <path id="DejaVuSans-76" d="M 191 3500 
L 800 3500 
L 1894 563 
L 2988 3500 
L 3597 3500 
L 2284 0 
L 1503 0 
L 191 3500 
z
" transform="scale(0.015625)"/>
       <path id="DejaVuSans-6f" d="M 1959 3097 
Q 1497 3097 1228 2736 
Q 959 2375 959 1747 
Q 959 1119 1226 758 
Q 1494 397 1959 397 
Q 2419 397 2687 759 
Q 2956 1122 2956 1747 
Q 2956 2369 2687 2733 
Q 2419 3097 1959 3097 
z
M 1959 3584 
Q 2709 3584 3137 3096 
Q 3566 2609 3566 1747 
Q 3566 888 3137 398 
Q 2709 -91 1959 -91 
Q 1206 -91 779 398 
Q 353 888 353 1747 
Q 353 2609 779 3096 
Q 1206 3584 1959 3584 
z
" transform="scale(0.015625)"/>
       <path id="DejaVuSans-69" d="M 603 3500 
L 1178 3500 
L 1178 0 
L 603 0 
L 603 3500 
z
M 603 4863 
L 1178 4863 
L 1178 4134 
L 603 4134 
L 603 4863 
z
" transform="scale(0.015625)"/>
       <path id="DejaVuSans-64" d="M 2906 2969 
L 2906 4863 
L 3481 4863 
L 3481 0 
L 2906 0 
L 2906 525 
Q 2725 213 2448 61 
Q 2172 -91 1784 -91 
Q 1150 -91 751 415 
Q 353 922 353 1747 
Q 353 2572 751 3078 
Q 1150 3584 1784 3584 
Q 2172 3584 2448 3432 
Q 2725 3281 2906 2969 
z
M 947 1747 
Q 947 1113 1208 752 
Q 1469 391 1925 391 
Q 2381 391 2643 752 
Q 2906 1113 2906 1747 
Q 2906 2381 2643 2742 
Q 2381 3103 1925 3103 
Q 1469 3103 1208 2742 
Q 947 2381 947 1747 
z
" transform="scale(0.015625)"/>
       <path id="DejaVuSans-6e" d="M 3513 2113 
L 3513 0 
L 2938 0 
L 2938 2094 
Q 2938 2591 2744 2837 
Q 2550 3084 2163 3084 
Q 1697 3084 1428 2787 
Q 1159 2491 1159 1978 
L 1159 0 
L 581 0 
L 581 3500 
L 1159 3500 
L 1159 2956 
Q 1366 3272 1645 3428 
Q 1925 3584 2291 3584 
Q 2894 3584 3203 3211 
Q 3513 2838 3513 2113 
z
" transform="scale(0.015625)"/>
       <path id="DejaVuSans-67" d="M 2906 1791 
Q 2906 2416 2648 2759 
Q 2391 3103 1925 3103 
Q 1463 3103 1205 2759 
Q 947 2416 947 1791 
Q 947 1169 1205 825 
Q 1463 481 1925 481 
Q 2391 481 2648 825 
Q 2906 1169 2906 1791 
z
M 3481 434 
Q 3481 -459 3084 -895 
Q 2688 -1331 1869 -1331 
Q 1566 -1331 1297 -1286 
Q 1028 -1241 775 -1147 
L 775 -588 
Q 1028 -725 1275 -790 
Q 1522 -856 1778 -856 
Q 2344 -856 2625 -561 
Q 2906 -266 2906 331 
L 2906 616 
Q 2728 306 2450 153 
Q 2172 0 1784 0 
Q 1141 0 747 490 
Q 353 981 353 1791 
Q 353 2603 747 3093 
Q 1141 3584 1784 3584 
Q 2172 3584 2450 3431 
Q 2728 3278 2906 2969 
L 2906 3500 
L 3481 3500 
L 3481 434 
z
" transform="scale(0.015625)"/>
       <path id="DejaVuSans-72" d="M 2631 2963 
Q 2534 3019 2420 3045 
Q 2306 3072 2169 3072 
Q 1681 3072 1420 2755 
Q 1159 2438 1159 1844 
L 1159 0 
L 581 0 
L 581 3500 
L 1159 3500 
L 1159 2956 
Q 1341 3275 1631 3429 
Q 1922 3584 2338 3584 
Q 2397 3584 2469 3576 
Q 2541 3569 2628 3553 
L 2631 2963 
z
" transform="scale(0.015625)"/>
       <path id="DejaVuSans-6a" d="M 603 3500 
L 1178 3500 
L 1178 -63 
Q 1178 -731 923 -1031 
Q 669 -1331 103 -1331 
L -116 -1331 
L -116 -844 
L 38 -844 
Q 366 -844 484 -692 
Q 603 -541 603 -63 
L 603 3500 
z
M 603 4863 
L 1178 4863 
L 1178 4134 
L 603 4134 
L 603 4863 
z
" transform="scale(0.015625)"/>
       <path id="DejaVuSans-79" d="M 2059 -325 
Q 1816 -950 1584 -1140 
Q 1353 -1331 966 -1331 
L 506 -1331 
L 506 -850 
L 844 -850 
Q 1081 -850 1212 -737 
Q 1344 -625 1503 -206 
L 1606 56 
L 191 3500 
L 800 3500 
L 1894 763 
L 2988 3500 
L 3597 3500 
L 2059 -325 
z
" transform="scale(0.015625)"/>
      </defs>
      <use xlink:href="#DejaVuSans-4f"/>
      <use xlink:href="#DejaVuSans-62" x="78.710938"/>
      <use xlink:href="#DejaVuSans-73" x="142.1875"/>
      <use xlink:href="#DejaVuSans-74" x="194.287109"/>
      <use xlink:href="#DejaVuSans-61" x="233.496094"/>
      <use xlink:href="#DejaVuSans-63" x="294.775391"/>
      <use xlink:href="#DejaVuSans-6c" x="349.755859"/>
      <use xlink:href="#DejaVuSans-65" x="377.539062"/>
      <use xlink:href="#DejaVuSans-20" x="439.0625"/>
      <use xlink:href="#DejaVuSans-61" x="470.849609"/>
      <use xlink:href="#DejaVuSans-76" x="532.128906"/>
      <use xlink:href="#DejaVuSans-6f" x="591.308594"/>
      <use xlink:href="#DejaVuSans-69" x="652.490234"/>
      <use xlink:href="#DejaVuSans-64" x="680.273438"/>
      <use xlink:href="#DejaVuSans-69" x="743.75"/>
      <use xlink:href="#DejaVuSans-6e" x="771.533203"/>
      <use xlink:href="#DejaVuSans-67" x="834.912109"/>
      <use xlink:href="#DejaVuSans-20" x="898.388672"/>
      <use xlink:href="#DejaVuSans-74" x="930.175781"/>
      <use xlink:href="#DejaVuSans-72" x="969.384766"/>
      <use xlink:href="#DejaVuSans-61" x="1010.498047"/>
      <use xlink:href="#DejaVuSans-6a" x="1071.777344"/>
      <use xlink:href="#DejaVuSans-65" x="1099.560547"/>
      <use xlink:href="#DejaVuSans-63" x="1161.083984"/>
      <use xlink:href="#DejaVuSans-74" x="1216.064453"/>
      <use xlink:href="#DejaVuSans-6f" x="1255.273438"/>
      <use xlink:href="#DejaVuSans-72" x="1316.455078"/>
      <use xlink:href="#DejaVuSans-79" x="1357.568359"/>
     </g>
    </g>
    <g id="line2d_33">
     <path d="M 1062.651563 54.101901 
L 1092.651563 54.101901 
L 1122.651563 54.101901 
" style="fill: none; stroke: #029e73; stroke-width: 8; stroke-linecap: square"/>
    </g>
    <g id="text_5">
     <!-- Optimal trajectory -->
     <g transform="translate(1146.651563 64.601901) scale(0.3 -0.3)">
      <defs>
       <path id="DejaVuSans-70" d="M 1159 525 
L 1159 -1331 
L 581 -1331 
L 581 3500 
L 1159 3500 
L 1159 2969 
Q 1341 3281 1617 3432 
Q 1894 3584 2278 3584 
Q 2916 3584 3314 3078 
Q 3713 2572 3713 1747 
Q 3713 922 3314 415 
Q 2916 -91 2278 -91 
Q 1894 -91 1617 61 
Q 1341 213 1159 525 
z
M 3116 1747 
Q 3116 2381 2855 2742 
Q 2594 3103 2138 3103 
Q 1681 3103 1420 2742 
Q 1159 2381 1159 1747 
Q 1159 1113 1420 752 
Q 1681 391 2138 391 
Q 2594 391 2855 752 
Q 3116 1113 3116 1747 
z
" transform="scale(0.015625)"/>
       <path id="DejaVuSans-6d" d="M 3328 2828 
Q 3544 3216 3844 3400 
Q 4144 3584 4550 3584 
Q 5097 3584 5394 3201 
Q 5691 2819 5691 2113 
L 5691 0 
L 5113 0 
L 5113 2094 
Q 5113 2597 4934 2840 
Q 4756 3084 4391 3084 
Q 3944 3084 3684 2787 
Q 3425 2491 3425 1978 
L 3425 0 
L 2847 0 
L 2847 2094 
Q 2847 2600 2669 2842 
Q 2491 3084 2119 3084 
Q 1678 3084 1418 2786 
Q 1159 2488 1159 1978 
L 1159 0 
L 581 0 
L 581 3500 
L 1159 3500 
L 1159 2956 
Q 1356 3278 1631 3431 
Q 1906 3584 2284 3584 
Q 2666 3584 2933 3390 
Q 3200 3197 3328 2828 
z
" transform="scale(0.015625)"/>
      </defs>
      <use xlink:href="#DejaVuSans-4f"/>
      <use xlink:href="#DejaVuSans-70" x="78.710938"/>
      <use xlink:href="#DejaVuSans-74" x="142.1875"/>
      <use xlink:href="#DejaVuSans-69" x="181.396484"/>
      <use xlink:href="#DejaVuSans-6d" x="209.179688"/>
      <use xlink:href="#DejaVuSans-61" x="306.591797"/>
      <use xlink:href="#DejaVuSans-6c" x="367.871094"/>
      <use xlink:href="#DejaVuSans-20" x="395.654297"/>
      <use xlink:href="#DejaVuSans-74" x="427.441406"/>
      <use xlink:href="#DejaVuSans-72" x="466.650391"/>
      <use xlink:href="#DejaVuSans-61" x="507.763672"/>
      <use xlink:href="#DejaVuSans-6a" x="569.042969"/>
      <use xlink:href="#DejaVuSans-65" x="596.826172"/>
      <use xlink:href="#DejaVuSans-63" x="658.349609"/>
      <use xlink:href="#DejaVuSans-74" x="713.330078"/>
      <use xlink:href="#DejaVuSans-6f" x="752.539062"/>
      <use xlink:href="#DejaVuSans-72" x="813.720703"/>
      <use xlink:href="#DejaVuSans-79" x="854.833984"/>
     </g>
    </g>
    <g id="line2d_34">
     <path d="M 1480.85625 54.101901 
L 1510.85625 54.101901 
L 1540.85625 54.101901 
" style="fill: none; stroke-dasharray: 51.2,12.8,8,12.8; stroke-dashoffset: 0; stroke: #000000; stroke-width: 8"/>
    </g>
    <g id="text_6">
     <!-- Goal pose -->
     <g transform="translate(1564.85625 64.601901) scale(0.3 -0.3)">
      <defs>
       <path id="DejaVuSans-47" d="M 3809 666 
L 3809 1919 
L 2778 1919 
L 2778 2438 
L 4434 2438 
L 4434 434 
Q 4069 175 3628 42 
Q 3188 -91 2688 -91 
Q 1594 -91 976 548 
Q 359 1188 359 2328 
Q 359 3472 976 4111 
Q 1594 4750 2688 4750 
Q 3144 4750 3555 4637 
Q 3966 4525 4313 4306 
L 4313 3634 
Q 3963 3931 3569 4081 
Q 3175 4231 2741 4231 
Q 1884 4231 1454 3753 
Q 1025 3275 1025 2328 
Q 1025 1384 1454 906 
Q 1884 428 2741 428 
Q 3075 428 3337 486 
Q 3600 544 3809 666 
z
" transform="scale(0.015625)"/>
      </defs>
      <use xlink:href="#DejaVuSans-47"/>
      <use xlink:href="#DejaVuSans-6f" x="77.490234"/>
      <use xlink:href="#DejaVuSans-61" x="138.671875"/>
      <use xlink:href="#DejaVuSans-6c" x="199.951172"/>
      <use xlink:href="#DejaVuSans-20" x="227.734375"/>
      <use xlink:href="#DejaVuSans-70" x="259.521484"/>
      <use xlink:href="#DejaVuSans-6f" x="322.998047"/>
      <use xlink:href="#DejaVuSans-73" x="384.179688"/>
      <use xlink:href="#DejaVuSans-65" x="436.279297"/>
     </g>
    </g>
   </g>
  </g>
  <g id="axes_2">
   <g id="patch_9">
    <path d="M 198.18 804.747059 
L 1726.2 804.747059 
L 1726.2 471.274118 
L 198.18 471.274118 
z
" style="fill: #ffffff"/>
   </g>
   <g id="PolyCollection_4"/>
   <g id="PolyCollection_5"/>
   <g id="PolyCollection_6"/>
   <g id="PolyCollection_7"/>
   <g id="PolyCollection_8"/>
   <g id="PolyCollection_9"/>
   <g id="PolyCollection_10"/>
   <g id="matplotlib.axis_3">
    <g id="xtick_12">
     <g id="line2d_35">
      <path d="M 267.635455 804.747059 
L 267.635455 471.274118 
" clip-path="url(#p574bb6fcdc)" style="fill: none; stroke: #b0b0b0; stroke-width: 0.8; stroke-linecap: square"/>
     </g>
     <g id="line2d_36">
      <g>
       <use xlink:href="#mf554d5d006" x="267.635455" y="804.747059" style="stroke: #000000; stroke-width: 0.8"/>
      </g>
     </g>
    </g>
    <g id="xtick_13">
     <g id="line2d_37">
      <path d="M 406.546364 804.747059 
L 406.546364 471.274118 
" clip-path="url(#p574bb6fcdc)" style="fill: none; stroke: #b0b0b0; stroke-width: 0.8; stroke-linecap: square"/>
     </g>
     <g id="line2d_38">
      <g>
       <use xlink:href="#mf554d5d006" x="406.546364" y="804.747059" style="stroke: #000000; stroke-width: 0.8"/>
      </g>
     </g>
    </g>
    <g id="xtick_14">
     <g id="line2d_39">
      <path d="M 545.457273 804.747059 
L 545.457273 471.274118 
" clip-path="url(#p574bb6fcdc)" style="fill: none; stroke: #b0b0b0; stroke-width: 0.8; stroke-linecap: square"/>
     </g>
     <g id="line2d_40">
      <g>
       <use xlink:href="#mf554d5d006" x="545.457273" y="804.747059" style="stroke: #000000; stroke-width: 0.8"/>
      </g>
     </g>
    </g>
    <g id="xtick_15">
     <g id="line2d_41">
      <path d="M 684.368182 804.747059 
L 684.368182 471.274118 
" clip-path="url(#p574bb6fcdc)" style="fill: none; stroke: #b0b0b0; stroke-width: 0.8; stroke-linecap: square"/>
     </g>
     <g id="line2d_42">
      <g>
       <use xlink:href="#mf554d5d006" x="684.368182" y="804.747059" style="stroke: #000000; stroke-width: 0.8"/>
      </g>
     </g>
    </g>
    <g id="xtick_16">
     <g id="line2d_43">
      <path d="M 823.279091 804.747059 
L 823.279091 471.274118 
" clip-path="url(#p574bb6fcdc)" style="fill: none; stroke: #b0b0b0; stroke-width: 0.8; stroke-linecap: square"/>
     </g>
     <g id="line2d_44">
      <g>
       <use xlink:href="#mf554d5d006" x="823.279091" y="804.747059" style="stroke: #000000; stroke-width: 0.8"/>
      </g>
     </g>
    </g>
    <g id="xtick_17">
     <g id="line2d_45">
      <path d="M 962.19 804.747059 
L 962.19 471.274118 
" clip-path="url(#p574bb6fcdc)" style="fill: none; stroke: #b0b0b0; stroke-width: 0.8; stroke-linecap: square"/>
     </g>
     <g id="line2d_46">
      <g>
       <use xlink:href="#mf554d5d006" x="962.19" y="804.747059" style="stroke: #000000; stroke-width: 0.8"/>
      </g>
     </g>
    </g>
    <g id="xtick_18">
     <g id="line2d_47">
      <path d="M 1101.100909 804.747059 
L 1101.100909 471.274118 
" clip-path="url(#p574bb6fcdc)" style="fill: none; stroke: #b0b0b0; stroke-width: 0.8; stroke-linecap: square"/>
     </g>
     <g id="line2d_48">
      <g>
       <use xlink:href="#mf554d5d006" x="1101.100909" y="804.747059" style="stroke: #000000; stroke-width: 0.8"/>
      </g>
     </g>
    </g>
    <g id="xtick_19">
     <g id="line2d_49">
      <path d="M 1240.011818 804.747059 
L 1240.011818 471.274118 
" clip-path="url(#p574bb6fcdc)" style="fill: none; stroke: #b0b0b0; stroke-width: 0.8; stroke-linecap: square"/>
     </g>
     <g id="line2d_50">
      <g>
       <use xlink:href="#mf554d5d006" x="1240.011818" y="804.747059" style="stroke: #000000; stroke-width: 0.8"/>
      </g>
     </g>
    </g>
    <g id="xtick_20">
     <g id="line2d_51">
      <path d="M 1378.922727 804.747059 
L 1378.922727 471.274118 
" clip-path="url(#p574bb6fcdc)" style="fill: none; stroke: #b0b0b0; stroke-width: 0.8; stroke-linecap: square"/>
     </g>
     <g id="line2d_52">
      <g>
       <use xlink:href="#mf554d5d006" x="1378.922727" y="804.747059" style="stroke: #000000; stroke-width: 0.8"/>
      </g>
     </g>
    </g>
    <g id="xtick_21">
     <g id="line2d_53">
      <path d="M 1517.833636 804.747059 
L 1517.833636 471.274118 
" clip-path="url(#p574bb6fcdc)" style="fill: none; stroke: #b0b0b0; stroke-width: 0.8; stroke-linecap: square"/>
     </g>
     <g id="line2d_54">
      <g>
       <use xlink:href="#mf554d5d006" x="1517.833636" y="804.747059" style="stroke: #000000; stroke-width: 0.8"/>
      </g>
     </g>
    </g>
    <g id="xtick_22">
     <g id="line2d_55">
      <path d="M 1656.744545 804.747059 
L 1656.744545 471.274118 
" clip-path="url(#p574bb6fcdc)" style="fill: none; stroke: #b0b0b0; stroke-width: 0.8; stroke-linecap: square"/>
     </g>
     <g id="line2d_56">
      <g>
       <use xlink:href="#mf554d5d006" x="1656.744545" y="804.747059" style="stroke: #000000; stroke-width: 0.8"/>
      </g>
     </g>
    </g>
   </g>
   <g id="matplotlib.axis_4">
    <g id="ytick_3">
     <g id="line2d_57">
      <path d="M 198.18 724.626937 
L 1726.2 724.626937 
" clip-path="url(#p574bb6fcdc)" style="fill: none; stroke: #b0b0b0; stroke-width: 0.8; stroke-linecap: square"/>
     </g>
     <g id="line2d_58">
      <g>
       <use xlink:href="#m26f55a2d0b" x="198.18" y="724.626937" style="stroke: #000000; stroke-width: 0.8"/>
      </g>
     </g>
     <g id="text_7">
      <!-- −0.2 -->
      <g transform="translate(106.190156 737.924202) scale(0.35 -0.35)">
       <defs>
        <path id="DejaVuSans-32" d="M 1228 531 
L 3431 531 
L 3431 0 
L 469 0 
L 469 531 
Q 828 903 1448 1529 
Q 2069 2156 2228 2338 
Q 2531 2678 2651 2914 
Q 2772 3150 2772 3378 
Q 2772 3750 2511 3984 
Q 2250 4219 1831 4219 
Q 1534 4219 1204 4116 
Q 875 4013 500 3803 
L 500 4441 
Q 881 4594 1212 4672 
Q 1544 4750 1819 4750 
Q 2544 4750 2975 4387 
Q 3406 4025 3406 3419 
Q 3406 3131 3298 2873 
Q 3191 2616 2906 2266 
Q 2828 2175 2409 1742 
Q 1991 1309 1228 531 
z
" transform="scale(0.015625)"/>
       </defs>
       <use xlink:href="#DejaVuSans-2212"/>
       <use xlink:href="#DejaVuSans-30" x="83.789062"/>
       <use xlink:href="#DejaVuSans-2e" x="147.412109"/>
       <use xlink:href="#DejaVuSans-32" x="179.199219"/>
      </g>
     </g>
    </g>
    <g id="ytick_4">
     <g id="line2d_59">
      <path d="M 198.18 638.010588 
L 1726.2 638.010588 
" clip-path="url(#p574bb6fcdc)" style="fill: none; stroke: #b0b0b0; stroke-width: 0.8; stroke-linecap: square"/>
     </g>
     <g id="line2d_60">
      <g>
       <use xlink:href="#m26f55a2d0b" x="198.18" y="638.010588" style="stroke: #000000; stroke-width: 0.8"/>
      </g>
     </g>
     <g id="text_8">
      <!-- 0.0 -->
      <g transform="translate(135.519063 651.307854) scale(0.35 -0.35)">
       <use xlink:href="#DejaVuSans-30"/>
       <use xlink:href="#DejaVuSans-2e" x="63.623047"/>
       <use xlink:href="#DejaVuSans-30" x="95.410156"/>
      </g>
     </g>
    </g>
    <g id="ytick_5">
     <g id="line2d_61">
      <path d="M 198.18 551.39424 
L 1726.2 551.39424 
" clip-path="url(#p574bb6fcdc)" style="fill: none; stroke: #b0b0b0; stroke-width: 0.8; stroke-linecap: square"/>
     </g>
     <g id="line2d_62">
      <g>
       <use xlink:href="#m26f55a2d0b" x="198.18" y="551.39424" style="stroke: #000000; stroke-width: 0.8"/>
      </g>
     </g>
     <g id="text_9">
      <!-- 0.2 -->
      <g transform="translate(135.519063 564.691506) scale(0.35 -0.35)">
       <use xlink:href="#DejaVuSans-30"/>
       <use xlink:href="#DejaVuSans-2e" x="63.623047"/>
       <use xlink:href="#DejaVuSans-32" x="95.410156"/>
      </g>
     </g>
    </g>
    <g id="text_10">
     <!-- Y -->
     <g transform="translate(99.219894 648.69926) rotate(-90) scale(0.35 -0.35)">
      <defs>
       <path id="DejaVuSans-59" d="M -13 4666 
L 666 4666 
L 1959 2747 
L 3244 4666 
L 3922 4666 
L 2272 2222 
L 2272 0 
L 1638 0 
L 1638 2222 
L -13 4666 
z
" transform="scale(0.015625)"/>
      </defs>
      <use xlink:href="#DejaVuSans-59"/>
     </g>
    </g>
   </g>
   <g id="line2d_63">
    <path d="M 267.635455 789.589198 
L 420.576365 789.589198 
" clip-path="url(#p574bb6fcdc)" style="fill: none; stroke-dasharray: 51.2,12.8,8,12.8; stroke-dashoffset: 0; stroke: #000000; stroke-width: 8"/>
   </g>
   <g id="line2d_64">
    <path d="M 420.576365 486.431979 
L 698.398184 486.431979 
" clip-path="url(#p574bb6fcdc)" style="fill: none; stroke-dasharray: 51.2,12.8,8,12.8; stroke-dashoffset: 0; stroke: #000000; stroke-width: 8"/>
   </g>
   <g id="line2d_65">
    <path d="M 698.398184 789.589198 
L 1115.130911 789.589198 
" clip-path="url(#p574bb6fcdc)" style="fill: none; stroke-dasharray: 51.2,12.8,8,12.8; stroke-dashoffset: 0; stroke: #000000; stroke-width: 8"/>
   </g>
   <g id="line2d_66">
    <path d="M 1115.130911 486.431979 
L 1392.952729 486.431979 
" clip-path="url(#p574bb6fcdc)" style="fill: none; stroke-dasharray: 51.2,12.8,8,12.8; stroke-dashoffset: 0; stroke: #000000; stroke-width: 8"/>
   </g>
   <g id="line2d_67">
    <path d="M 1392.952729 789.589198 
L 1654.660882 789.589198 
" clip-path="url(#p574bb6fcdc)" style="fill: none; stroke-dasharray: 51.2,12.8,8,12.8; stroke-dashoffset: 0; stroke: #000000; stroke-width: 8"/>
   </g>
   <g id="line2d_68">
    <path d="M 267.635455 787.372213 
L 428.633198 788.60165 
L 429.605575 788.438587 
L 430.716862 788.026653 
L 431.828149 787.382838 
L 433.078347 786.382879 
L 434.328545 785.090613 
L 435.856565 783.062961 
L 437.245675 780.804578 
L 438.773695 777.852076 
L 440.301715 774.412056 
L 442.107556 769.767873 
L 444.19122 763.774752 
L 446.413795 756.667846 
L 448.77528 748.331294 
L 451.553498 737.670773 
L 454.470627 725.591627 
L 458.360133 708.396085 
L 463.499836 684.590406 
L 470.445382 652.718539 
L 474.612709 634.658743 
L 478.085482 620.519913 
L 481.558255 607.348671 
L 484.614295 596.603527 
L 487.531424 587.110491 
L 490.448553 578.356901 
L 493.226771 570.705275 
L 496.1439 563.334533 
L 499.061029 556.565642 
L 501.839247 550.679856 
L 504.617465 545.302215 
L 507.256773 540.655526 
L 510.034991 536.215362 
L 512.674298 532.403086 
L 515.313605 528.976464 
L 518.091824 525.721778 
L 520.731131 522.963866 
L 523.64826 520.243168 
L 526.426478 517.948991 
L 529.343607 515.834593 
L 532.399647 513.889057 
L 535.594598 512.136645 
L 539.067371 510.474165 
L 542.401233 509.11951 
L 546.012916 507.886028 
L 549.6246 506.895205 
L 553.653016 506.01233 
L 558.375987 505.217415 
L 564.488067 504.433458 
L 573.378365 503.495327 
L 597.132131 501.301646 
L 602.827478 501.102522 
L 609.495202 501.095252 
L 621.024807 501.039494 
L 634.499165 500.729856 
L 645.612038 500.540052 
L 662.420258 500.369304 
L 685.61838 499.719953 
L 703.676798 499.530481 
L 704.788085 499.847318 
L 705.899373 500.384719 
L 707.149571 501.251849 
L 708.399769 502.399583 
L 709.788878 504.005034 
L 711.455809 506.276429 
L 713.261651 509.136176 
L 715.067493 512.425384 
L 717.428978 517.262228 
L 720.207196 523.450881 
L 722.985415 530.205007 
L 725.485811 536.847901 
L 727.986207 544.124327 
L 730.486604 552.071188 
L 732.848089 560.327433 
L 735.348485 569.882374 
L 738.126704 581.422021 
L 741.182744 595.060358 
L 745.072249 613.53808 
L 752.156705 646.907705 
L 755.490567 661.387506 
L 758.546607 673.724959 
L 761.463736 684.630789 
L 764.380865 694.690863 
L 767.297995 703.994804 
L 770.076213 712.158987 
L 773.271164 720.836824 
L 776.327204 728.490791 
L 779.522155 735.88115 
L 782.439284 742.091965 
L 785.356413 747.774097 
L 787.99572 752.455514 
L 790.635027 756.6873 
L 793.274335 760.511637 
L 795.774731 763.750068 
L 798.552949 766.978464 
L 801.331167 769.874097 
L 803.970475 772.303946 
L 806.748693 774.560899 
L 809.388 776.431737 
L 812.305129 778.212564 
L 815.222258 779.736572 
L 818.139387 781.002913 
L 821.473249 782.223832 
L 824.946022 783.250856 
L 828.696616 784.145514 
L 833.002855 784.912587 
L 837.170182 785.4507 
L 842.032064 785.833919 
L 847.171767 785.990053 
L 853.422758 785.948747 
L 862.729789 785.675778 
L 902.875042 784.293523 
L 921.905836 784.176924 
L 934.824551 784.301057 
L 968.440991 785.030505 
L 1026.505751 786.362353 
L 1080.403184 787.278957 
L 1119.437149 787.704753 
L 1120.409525 787.418943 
L 1121.381902 786.912709 
L 1122.493189 786.06744 
L 1123.604476 784.938397 
L 1124.854675 783.329078 
L 1126.104873 781.360507 
L 1127.771804 778.298622 
L 1129.577645 774.474881 
L 1131.383487 770.124087 
L 1133.467151 764.495517 
L 1135.828636 757.504704 
L 1138.051211 750.360175 
L 1140.829429 740.673483 
L 1143.885469 729.193637 
L 1147.497153 714.517405 
L 1150.969925 699.375158 
L 1156.526362 673.905958 
L 1162.777353 645.613984 
L 1166.805769 628.482607 
L 1170.278542 614.69999 
L 1173.612404 602.378247 
L 1176.807355 591.41804 
L 1179.863395 581.715004 
L 1182.641613 573.619277 
L 1185.28092 566.587343 
L 1188.198049 559.498733 
L 1190.837356 553.655084 
L 1193.615575 548.060326 
L 1196.532704 542.693625 
L 1199.310922 538.059579 
L 1202.228051 533.660968 
L 1204.867358 530.071325 
L 1207.506665 526.84488 
L 1210.284884 523.793405 
L 1212.924191 521.222684 
L 1215.84132 518.693539 
L 1218.619538 516.566023 
L 1221.9534 514.329456 
L 1225.00944 512.5514 
L 1228.482213 510.804084 
L 1231.816075 509.364379 
L 1235.427758 508.060827 
L 1239.039442 506.992231 
L 1243.206769 506.010377 
L 1247.513007 505.237308 
L 1252.652711 504.538856 
L 1260.570633 503.714829 
L 1288.074993 501.370265 
L 1294.325984 501.087506 
L 1300.576975 501.020563 
L 1315.16262 500.916163 
L 1341.694604 500.316783 
L 1360.308665 500.199738 
L 1400.037185 499.388767 
L 1401.148473 499.67541 
L 1402.25976 500.186084 
L 1403.509958 501.026748 
L 1404.760156 502.151801 
L 1406.010355 503.565102 
L 1407.399464 505.475047 
L 1409.205305 508.336119 
L 1411.150058 511.864187 
L 1413.094811 515.876322 
L 1415.734118 521.947302 
L 1418.651247 529.186614 
L 1421.290555 536.311219 
L 1423.65204 543.326565 
L 1426.152436 551.460428 
L 1428.791744 560.830854 
L 1431.569962 571.545708 
L 1434.626002 584.274153 
L 1438.376596 600.926771 
L 1450.600756 656.321315 
L 1453.795707 669.194698 
L 1456.990658 681.133067 
L 1460.046698 691.69069 
L 1463.241649 701.886001 
L 1466.4366 711.3502 
L 1469.631551 720.096344 
L 1472.826502 728.200763 
L 1475.743631 735.017232 
L 1478.66076 741.297908 
L 1481.438978 746.762155 
L 1484.217196 751.732351 
L 1486.856504 756.004163 
L 1489.495811 759.838338 
L 1492.135118 763.307777 
L 1494.635515 766.251138 
L 1497.552644 769.334453 
L 1500.330862 771.96783 
L 1502.970169 774.180269 
L 1505.887298 776.331282 
L 1508.526605 778.013208 
L 1511.443735 779.598009 
L 1514.499775 781.016931 
L 1517.833636 782.301926 
L 1521.44532 783.477377 
L 1525.057004 784.411668 
L 1528.668687 785.125105 
L 1532.697104 785.672561 
L 1536.586609 785.989204 
L 1542.004135 786.199809 
L 1550.755522 786.233586 
L 1558.1178 786.030864 
L 1569.925227 785.442248 
L 1585.761071 784.797749 
L 1602.013647 784.289848 
L 1612.570876 784.208002 
L 1634.379889 784.357081 
L 1649.521178 784.665941 
L 1656.605635 784.831243 
L 1656.605635 784.831243 
" clip-path="url(#p574bb6fcdc)" style="fill: none; stroke: #de8f05; stroke-width: 8; stroke-linecap: square"/>
   </g>
   <g id="line2d_69">
    <path d="M 267.774365 783.523913 
L 310.281104 784.975807 
L 355.56606 786.097403 
L 397.794976 786.892287 
L 430.716862 787.302396 
L 431.550327 786.996536 
L 432.383793 786.467325 
L 433.356169 785.569225 
L 434.328545 784.369522 
L 435.439833 782.629388 
L 436.690031 780.217522 
L 438.218051 776.753205 
L 439.746071 772.745412 
L 441.413002 767.759724 
L 443.218844 761.656622 
L 445.858151 751.90985 
L 448.636369 740.782262 
L 452.664785 723.532659 
L 457.9434 699.957808 
L 468.083896 654.477288 
L 472.390135 636.300709 
L 476.001818 622.020815 
L 479.33568 609.74533 
L 482.39172 599.31022 
L 485.308849 590.115562 
L 488.225978 581.618205 
L 491.004196 574.174784 
L 493.921325 566.984175 
L 496.838455 560.384478 
L 499.616673 554.663185 
L 502.394891 549.453195 
L 505.034198 544.972834 
L 507.812416 540.705663 
L 510.451724 537.04148 
L 513.229942 533.56884 
L 516.147071 530.267067 
L 518.925289 527.454163 
L 521.981329 524.666936 
L 524.898458 522.303298 
L 528.23232 519.891935 
L 531.427271 517.852338 
L 534.761133 516.004554 
L 538.094995 514.408522 
L 541.845589 512.888653 
L 545.457273 511.665318 
L 549.902422 510.396952 
L 554.903215 509.225729 
L 560.181829 508.207809 
L 565.460444 507.42243 
L 571.572524 506.760891 
L 580.740644 506.078865 
L 595.048467 505.254658 
L 608.522825 504.676682 
L 634.499165 503.524621 
L 707.427393 500.360045 
L 708.260858 500.62489 
L 709.094324 501.105901 
L 710.0667 501.935422 
L 711.039076 503.053547 
L 712.150364 504.686683 
L 713.400562 506.98031 
L 714.789671 510.05502 
L 716.595513 514.603891 
L 718.401355 519.760197 
L 720.346107 525.986357 
L 723.263236 536.271167 
L 726.319276 547.841868 
L 732.431356 572.265369 
L 750.489775 645.080539 
L 755.212745 662.947971 
L 759.102251 676.829022 
L 762.713935 688.906552 
L 766.047796 699.311716 
L 769.103836 708.166696 
L 772.159876 716.351803 
L 774.938095 723.193305 
L 777.855224 729.775563 
L 780.633442 735.530336 
L 783.41166 740.769371 
L 786.328789 745.802495 
L 788.968096 749.935034 
L 791.885225 754.08481 
L 794.663444 757.651637 
L 797.441662 760.844314 
L 800.358791 763.874742 
L 803.137009 766.441904 
L 806.054138 768.816065 
L 808.832356 770.789576 
L 811.610575 772.484013 
L 814.666615 774.111308 
L 817.861565 775.552029 
L 821.751071 777.066383 
L 825.223844 778.185287 
L 828.974438 779.164756 
L 832.586122 779.877757 
L 837.031271 780.541936 
L 844.254638 781.296902 
L 850.922362 781.748342 
L 858.28464 781.993044 
L 869.675335 782.101828 
L 894.401476 782.397577 
L 924.267322 783.106559 
L 981.220795 784.918745 
L 1019.004562 785.930273 
L 1050.120605 786.58391 
L 1105.407147 787.450316 
L 1123.465565 787.587411 
L 1124.299031 787.280054 
L 1125.132496 786.749225 
L 1126.104873 785.849103 
L 1127.077249 784.647248 
L 1128.188536 782.904509 
L 1129.438735 780.475524 
L 1130.966755 776.970663 
L 1132.633685 772.557238 
L 1134.439527 767.08834 
L 1136.38428 760.421122 
L 1139.162498 750.011754 
L 1142.079627 738.180055 
L 1146.108044 720.720253 
L 1151.803391 695.05174 
L 1160.554778 655.683093 
L 1164.999927 636.783443 
L 1168.611611 622.382362 
L 1171.945473 609.973882 
L 1175.001513 599.407696 
L 1177.918642 590.083755 
L 1180.835771 581.491943 
L 1183.613989 574.007438 
L 1186.392207 567.148614 
L 1189.031515 561.207017 
L 1191.948644 555.202284 
L 1194.726862 549.992177 
L 1197.643991 545.016282 
L 1200.56112 540.474634 
L 1203.339338 536.561484 
L 1206.117556 533.017414 
L 1208.756864 529.990012 
L 1211.673993 526.992127 
L 1214.452211 524.448205 
L 1217.36934 522.086633 
L 1220.286469 519.996389 
L 1223.48142 517.995673 
L 1226.815282 516.162611 
L 1230.288055 514.517174 
L 1233.899738 513.037579 
L 1238.067065 511.594669 
L 1242.234393 510.370039 
L 1246.957364 509.235136 
L 1251.819245 508.312907 
L 1256.820038 507.591624 
L 1263.348851 506.8661 
L 1271.961327 506.129412 
L 1281.54618 505.50545 
L 1296.82638 504.825989 
L 1341.694604 502.841746 
L 1384.895896 500.902337 
L 1401.287384 500.357492 
L 1402.120849 500.659801 
L 1403.093225 501.284471 
L 1404.065602 502.198457 
L 1405.176889 503.59775 
L 1406.288176 505.377931 
L 1407.677285 508.078189 
L 1409.344216 511.798846 
L 1411.150058 516.354956 
L 1413.094811 521.865065 
L 1415.317385 528.877462 
L 1418.234515 538.816376 
L 1421.290555 550.061499 
L 1426.569169 570.558825 
L 1438.098775 616.855584 
L 1444.905409 643.602359 
L 1449.767291 661.8319 
L 1453.934618 676.60487 
L 1457.685213 689.075594 
L 1461.019075 699.426633 
L 1464.214025 708.637191 
L 1467.270065 716.791654 
L 1470.187195 723.949869 
L 1473.104324 730.535172 
L 1475.882542 736.258159 
L 1478.66076 741.49858 
L 1481.300067 746.021052 
L 1484.217196 750.565951 
L 1486.856504 754.289112 
L 1489.773633 758.005841 
L 1492.690762 761.377498 
L 1495.46898 764.249348 
L 1498.386109 766.938503 
L 1501.025416 769.078198 
L 1503.942545 771.153971 
L 1506.720764 772.865237 
L 1510.054625 774.622135 
L 1513.249576 776.054948 
L 1517.139082 777.525319 
L 1520.889676 778.713507 
L 1524.779182 779.698987 
L 1528.529776 780.4245 
L 1533.391658 781.10771 
L 1538.809184 781.61573 
L 1545.337996 782.014513 
L 1553.672651 782.33434 
L 1562.979682 782.450369 
L 1594.234636 782.697709 
L 1608.54246 782.996251 
L 1656.744545 784.438436 
L 1656.744545 784.438436 
" clip-path="url(#p574bb6fcdc)" style="fill: none; stroke: #029e73; stroke-width: 8; stroke-linecap: square"/>
   </g>
   <g id="line2d_70"/>
   <g id="line2d_71"/>
   <g id="patch_10">
    <path d="M 198.18 804.747059 
L 198.18 471.274118 
" style="fill: none; stroke: #000000; stroke-width: 0.8; stroke-linejoin: miter; stroke-linecap: square"/>
   </g>
   <g id="patch_11">
    <path d="M 1726.2 804.747059 
L 1726.2 471.274118 
" style="fill: none; stroke: #000000; stroke-width: 0.8; stroke-linejoin: miter; stroke-linecap: square"/>
   </g>
   <g id="patch_12">
    <path d="M 198.18 804.747059 
L 1726.2 804.747059 
" style="fill: none; stroke: #000000; stroke-width: 0.8; stroke-linejoin: miter; stroke-linecap: square"/>
   </g>
   <g id="patch_13">
    <path d="M 198.18 471.274118 
L 1726.2 471.274118 
" style="fill: none; stroke: #000000; stroke-width: 0.8; stroke-linejoin: miter; stroke-linecap: square"/>
   </g>
  </g>
  <g id="axes_3">
   <g id="patch_14">
    <path d="M 198.18 1179.52 
L 1726.2 1179.52 
L 1726.2 846.047059 
L 198.18 846.047059 
z
" style="fill: #ffffff"/>
   </g>
   <g id="PolyCollection_11"/>
   <g id="PolyCollection_12"/>
   <g id="PolyCollection_13"/>
   <g id="matplotlib.axis_5">
    <g id="xtick_23">
     <g id="line2d_72">
      <path d="M 267.635455 1179.52 
L 267.635455 846.047059 
" clip-path="url(#pa19f9cbb97)" style="fill: none; stroke: #b0b0b0; stroke-width: 0.8; stroke-linecap: square"/>
     </g>
     <g id="line2d_73">
      <g>
       <use xlink:href="#mf554d5d006" x="267.635455" y="1179.52" style="stroke: #000000; stroke-width: 0.8"/>
      </g>
     </g>
     <g id="text_11">
      <!-- 0.0 -->
      <g transform="translate(239.804986 1213.114531) scale(0.35 -0.35)">
       <use xlink:href="#DejaVuSans-30"/>
       <use xlink:href="#DejaVuSans-2e" x="63.623047"/>
       <use xlink:href="#DejaVuSans-30" x="95.410156"/>
      </g>
     </g>
    </g>
    <g id="xtick_24">
     <g id="line2d_74">
      <path d="M 406.546364 1179.52 
L 406.546364 846.047059 
" clip-path="url(#pa19f9cbb97)" style="fill: none; stroke: #b0b0b0; stroke-width: 0.8; stroke-linecap: square"/>
     </g>
     <g id="line2d_75">
      <g>
       <use xlink:href="#mf554d5d006" x="406.546364" y="1179.52" style="stroke: #000000; stroke-width: 0.8"/>
      </g>
     </g>
     <g id="text_12">
      <!-- 1.0 -->
      <g transform="translate(378.715895 1213.114531) scale(0.35 -0.35)">
       <use xlink:href="#DejaVuSans-31"/>
       <use xlink:href="#DejaVuSans-2e" x="63.623047"/>
       <use xlink:href="#DejaVuSans-30" x="95.410156"/>
      </g>
     </g>
    </g>
    <g id="xtick_25">
     <g id="line2d_76">
      <path d="M 545.457273 1179.52 
L 545.457273 846.047059 
" clip-path="url(#pa19f9cbb97)" style="fill: none; stroke: #b0b0b0; stroke-width: 0.8; stroke-linecap: square"/>
     </g>
     <g id="line2d_77">
      <g>
       <use xlink:href="#mf554d5d006" x="545.457273" y="1179.52" style="stroke: #000000; stroke-width: 0.8"/>
      </g>
     </g>
     <g id="text_13">
      <!-- 2.0 -->
      <g transform="translate(517.626804 1213.114531) scale(0.35 -0.35)">
       <use xlink:href="#DejaVuSans-32"/>
       <use xlink:href="#DejaVuSans-2e" x="63.623047"/>
       <use xlink:href="#DejaVuSans-30" x="95.410156"/>
      </g>
     </g>
    </g>
    <g id="xtick_26">
     <g id="line2d_78">
      <path d="M 684.368182 1179.52 
L 684.368182 846.047059 
" clip-path="url(#pa19f9cbb97)" style="fill: none; stroke: #b0b0b0; stroke-width: 0.8; stroke-linecap: square"/>
     </g>
     <g id="line2d_79">
      <g>
       <use xlink:href="#mf554d5d006" x="684.368182" y="1179.52" style="stroke: #000000; stroke-width: 0.8"/>
      </g>
     </g>
     <g id="text_14">
      <!-- 3.0 -->
      <g transform="translate(656.537713 1213.114531) scale(0.35 -0.35)">
       <defs>
        <path id="DejaVuSans-33" d="M 2597 2516 
Q 3050 2419 3304 2112 
Q 3559 1806 3559 1356 
Q 3559 666 3084 287 
Q 2609 -91 1734 -91 
Q 1441 -91 1130 -33 
Q 819 25 488 141 
L 488 750 
Q 750 597 1062 519 
Q 1375 441 1716 441 
Q 2309 441 2620 675 
Q 2931 909 2931 1356 
Q 2931 1769 2642 2001 
Q 2353 2234 1838 2234 
L 1294 2234 
L 1294 2753 
L 1863 2753 
Q 2328 2753 2575 2939 
Q 2822 3125 2822 3475 
Q 2822 3834 2567 4026 
Q 2313 4219 1838 4219 
Q 1578 4219 1281 4162 
Q 984 4106 628 3988 
L 628 4550 
Q 988 4650 1302 4700 
Q 1616 4750 1894 4750 
Q 2613 4750 3031 4423 
Q 3450 4097 3450 3541 
Q 3450 3153 3228 2886 
Q 3006 2619 2597 2516 
z
" transform="scale(0.015625)"/>
       </defs>
       <use xlink:href="#DejaVuSans-33"/>
       <use xlink:href="#DejaVuSans-2e" x="63.623047"/>
       <use xlink:href="#DejaVuSans-30" x="95.410156"/>
      </g>
     </g>
    </g>
    <g id="xtick_27">
     <g id="line2d_80">
      <path d="M 823.279091 1179.52 
L 823.279091 846.047059 
" clip-path="url(#pa19f9cbb97)" style="fill: none; stroke: #b0b0b0; stroke-width: 0.8; stroke-linecap: square"/>
     </g>
     <g id="line2d_81">
      <g>
       <use xlink:href="#mf554d5d006" x="823.279091" y="1179.52" style="stroke: #000000; stroke-width: 0.8"/>
      </g>
     </g>
     <g id="text_15">
      <!-- 4.0 -->
      <g transform="translate(795.448622 1213.114531) scale(0.35 -0.35)">
       <defs>
        <path id="DejaVuSans-34" d="M 2419 4116 
L 825 1625 
L 2419 1625 
L 2419 4116 
z
M 2253 4666 
L 3047 4666 
L 3047 1625 
L 3713 1625 
L 3713 1100 
L 3047 1100 
L 3047 0 
L 2419 0 
L 2419 1100 
L 313 1100 
L 313 1709 
L 2253 4666 
z
" transform="scale(0.015625)"/>
       </defs>
       <use xlink:href="#DejaVuSans-34"/>
       <use xlink:href="#DejaVuSans-2e" x="63.623047"/>
       <use xlink:href="#DejaVuSans-30" x="95.410156"/>
      </g>
     </g>
    </g>
    <g id="xtick_28">
     <g id="line2d_82">
      <path d="M 962.19 1179.52 
L 962.19 846.047059 
" clip-path="url(#pa19f9cbb97)" style="fill: none; stroke: #b0b0b0; stroke-width: 0.8; stroke-linecap: square"/>
     </g>
     <g id="line2d_83">
      <g>
       <use xlink:href="#mf554d5d006" x="962.19" y="1179.52" style="stroke: #000000; stroke-width: 0.8"/>
      </g>
     </g>
     <g id="text_16">
      <!-- 5.0 -->
      <g transform="translate(934.359531 1213.114531) scale(0.35 -0.35)">
       <defs>
        <path id="DejaVuSans-35" d="M 691 4666 
L 3169 4666 
L 3169 4134 
L 1269 4134 
L 1269 2991 
Q 1406 3038 1543 3061 
Q 1681 3084 1819 3084 
Q 2600 3084 3056 2656 
Q 3513 2228 3513 1497 
Q 3513 744 3044 326 
Q 2575 -91 1722 -91 
Q 1428 -91 1123 -41 
Q 819 9 494 109 
L 494 744 
Q 775 591 1075 516 
Q 1375 441 1709 441 
Q 2250 441 2565 725 
Q 2881 1009 2881 1497 
Q 2881 1984 2565 2268 
Q 2250 2553 1709 2553 
Q 1456 2553 1204 2497 
Q 953 2441 691 2322 
L 691 4666 
z
" transform="scale(0.015625)"/>
       </defs>
       <use xlink:href="#DejaVuSans-35"/>
       <use xlink:href="#DejaVuSans-2e" x="63.623047"/>
       <use xlink:href="#DejaVuSans-30" x="95.410156"/>
      </g>
     </g>
    </g>
    <g id="xtick_29">
     <g id="line2d_84">
      <path d="M 1101.100909 1179.52 
L 1101.100909 846.047059 
" clip-path="url(#pa19f9cbb97)" style="fill: none; stroke: #b0b0b0; stroke-width: 0.8; stroke-linecap: square"/>
     </g>
     <g id="line2d_85">
      <g>
       <use xlink:href="#mf554d5d006" x="1101.100909" y="1179.52" style="stroke: #000000; stroke-width: 0.8"/>
      </g>
     </g>
     <g id="text_17">
      <!-- 6.0 -->
      <g transform="translate(1073.27044 1213.114531) scale(0.35 -0.35)">
       <defs>
        <path id="DejaVuSans-36" d="M 2113 2584 
Q 1688 2584 1439 2293 
Q 1191 2003 1191 1497 
Q 1191 994 1439 701 
Q 1688 409 2113 409 
Q 2538 409 2786 701 
Q 3034 994 3034 1497 
Q 3034 2003 2786 2293 
Q 2538 2584 2113 2584 
z
M 3366 4563 
L 3366 3988 
Q 3128 4100 2886 4159 
Q 2644 4219 2406 4219 
Q 1781 4219 1451 3797 
Q 1122 3375 1075 2522 
Q 1259 2794 1537 2939 
Q 1816 3084 2150 3084 
Q 2853 3084 3261 2657 
Q 3669 2231 3669 1497 
Q 3669 778 3244 343 
Q 2819 -91 2113 -91 
Q 1303 -91 875 529 
Q 447 1150 447 2328 
Q 447 3434 972 4092 
Q 1497 4750 2381 4750 
Q 2619 4750 2861 4703 
Q 3103 4656 3366 4563 
z
" transform="scale(0.015625)"/>
       </defs>
       <use xlink:href="#DejaVuSans-36"/>
       <use xlink:href="#DejaVuSans-2e" x="63.623047"/>
       <use xlink:href="#DejaVuSans-30" x="95.410156"/>
      </g>
     </g>
    </g>
    <g id="xtick_30">
     <g id="line2d_86">
      <path d="M 1240.011818 1179.52 
L 1240.011818 846.047059 
" clip-path="url(#pa19f9cbb97)" style="fill: none; stroke: #b0b0b0; stroke-width: 0.8; stroke-linecap: square"/>
     </g>
     <g id="line2d_87">
      <g>
       <use xlink:href="#mf554d5d006" x="1240.011818" y="1179.52" style="stroke: #000000; stroke-width: 0.8"/>
      </g>
     </g>
     <g id="text_18">
      <!-- 7.0 -->
      <g transform="translate(1212.181349 1213.114531) scale(0.35 -0.35)">
       <defs>
        <path id="DejaVuSans-37" d="M 525 4666 
L 3525 4666 
L 3525 4397 
L 1831 0 
L 1172 0 
L 2766 4134 
L 525 4134 
L 525 4666 
z
" transform="scale(0.015625)"/>
       </defs>
       <use xlink:href="#DejaVuSans-37"/>
       <use xlink:href="#DejaVuSans-2e" x="63.623047"/>
       <use xlink:href="#DejaVuSans-30" x="95.410156"/>
      </g>
     </g>
    </g>
    <g id="xtick_31">
     <g id="line2d_88">
      <path d="M 1378.922727 1179.52 
L 1378.922727 846.047059 
" clip-path="url(#pa19f9cbb97)" style="fill: none; stroke: #b0b0b0; stroke-width: 0.8; stroke-linecap: square"/>
     </g>
     <g id="line2d_89">
      <g>
       <use xlink:href="#mf554d5d006" x="1378.922727" y="1179.52" style="stroke: #000000; stroke-width: 0.8"/>
      </g>
     </g>
     <g id="text_19">
      <!-- 8.0 -->
      <g transform="translate(1351.092259 1213.114531) scale(0.35 -0.35)">
       <defs>
        <path id="DejaVuSans-38" d="M 2034 2216 
Q 1584 2216 1326 1975 
Q 1069 1734 1069 1313 
Q 1069 891 1326 650 
Q 1584 409 2034 409 
Q 2484 409 2743 651 
Q 3003 894 3003 1313 
Q 3003 1734 2745 1975 
Q 2488 2216 2034 2216 
z
M 1403 2484 
Q 997 2584 770 2862 
Q 544 3141 544 3541 
Q 544 4100 942 4425 
Q 1341 4750 2034 4750 
Q 2731 4750 3128 4425 
Q 3525 4100 3525 3541 
Q 3525 3141 3298 2862 
Q 3072 2584 2669 2484 
Q 3125 2378 3379 2068 
Q 3634 1759 3634 1313 
Q 3634 634 3220 271 
Q 2806 -91 2034 -91 
Q 1263 -91 848 271 
Q 434 634 434 1313 
Q 434 1759 690 2068 
Q 947 2378 1403 2484 
z
M 1172 3481 
Q 1172 3119 1398 2916 
Q 1625 2713 2034 2713 
Q 2441 2713 2670 2916 
Q 2900 3119 2900 3481 
Q 2900 3844 2670 4047 
Q 2441 4250 2034 4250 
Q 1625 4250 1398 4047 
Q 1172 3844 1172 3481 
z
" transform="scale(0.015625)"/>
       </defs>
       <use xlink:href="#DejaVuSans-38"/>
       <use xlink:href="#DejaVuSans-2e" x="63.623047"/>
       <use xlink:href="#DejaVuSans-30" x="95.410156"/>
      </g>
     </g>
    </g>
    <g id="xtick_32">
     <g id="line2d_90">
      <path d="M 1517.833636 1179.52 
L 1517.833636 846.047059 
" clip-path="url(#pa19f9cbb97)" style="fill: none; stroke: #b0b0b0; stroke-width: 0.8; stroke-linecap: square"/>
     </g>
     <g id="line2d_91">
      <g>
       <use xlink:href="#mf554d5d006" x="1517.833636" y="1179.52" style="stroke: #000000; stroke-width: 0.8"/>
      </g>
     </g>
     <g id="text_20">
      <!-- 9.0 -->
      <g transform="translate(1490.003168 1213.114531) scale(0.35 -0.35)">
       <defs>
        <path id="DejaVuSans-39" d="M 703 97 
L 703 672 
Q 941 559 1184 500 
Q 1428 441 1663 441 
Q 2288 441 2617 861 
Q 2947 1281 2994 2138 
Q 2813 1869 2534 1725 
Q 2256 1581 1919 1581 
Q 1219 1581 811 2004 
Q 403 2428 403 3163 
Q 403 3881 828 4315 
Q 1253 4750 1959 4750 
Q 2769 4750 3195 4129 
Q 3622 3509 3622 2328 
Q 3622 1225 3098 567 
Q 2575 -91 1691 -91 
Q 1453 -91 1209 -44 
Q 966 3 703 97 
z
M 1959 2075 
Q 2384 2075 2632 2365 
Q 2881 2656 2881 3163 
Q 2881 3666 2632 3958 
Q 2384 4250 1959 4250 
Q 1534 4250 1286 3958 
Q 1038 3666 1038 3163 
Q 1038 2656 1286 2365 
Q 1534 2075 1959 2075 
z
" transform="scale(0.015625)"/>
       </defs>
       <use xlink:href="#DejaVuSans-39"/>
       <use xlink:href="#DejaVuSans-2e" x="63.623047"/>
       <use xlink:href="#DejaVuSans-30" x="95.410156"/>
      </g>
     </g>
    </g>
    <g id="xtick_33">
     <g id="line2d_92">
      <path d="M 1656.744545 1179.52 
L 1656.744545 846.047059 
" clip-path="url(#pa19f9cbb97)" style="fill: none; stroke: #b0b0b0; stroke-width: 0.8; stroke-linecap: square"/>
     </g>
     <g id="line2d_93">
      <g>
       <use xlink:href="#mf554d5d006" x="1656.744545" y="1179.52" style="stroke: #000000; stroke-width: 0.8"/>
      </g>
     </g>
     <g id="text_21">
      <!-- 10.0 -->
      <g transform="translate(1617.779702 1213.114531) scale(0.35 -0.35)">
       <use xlink:href="#DejaVuSans-31"/>
       <use xlink:href="#DejaVuSans-30" x="63.623047"/>
       <use xlink:href="#DejaVuSans-2e" x="127.246094"/>
       <use xlink:href="#DejaVuSans-30" x="159.033203"/>
      </g>
     </g>
    </g>
    <g id="text_22">
     <!-- Time (s) -->
     <g transform="translate(891.038828 1250.987969) scale(0.35 -0.35)">
      <defs>
       <path id="DejaVuSans-54" d="M -19 4666 
L 3928 4666 
L 3928 4134 
L 2272 4134 
L 2272 0 
L 1638 0 
L 1638 4134 
L -19 4134 
L -19 4666 
z
" transform="scale(0.015625)"/>
       <path id="DejaVuSans-28" d="M 1984 4856 
Q 1566 4138 1362 3434 
Q 1159 2731 1159 2009 
Q 1159 1288 1364 580 
Q 1569 -128 1984 -844 
L 1484 -844 
Q 1016 -109 783 600 
Q 550 1309 550 2009 
Q 550 2706 781 3412 
Q 1013 4119 1484 4856 
L 1984 4856 
z
" transform="scale(0.015625)"/>
       <path id="DejaVuSans-29" d="M 513 4856 
L 1013 4856 
Q 1481 4119 1714 3412 
Q 1947 2706 1947 2009 
Q 1947 1309 1714 600 
Q 1481 -109 1013 -844 
L 513 -844 
Q 928 -128 1133 580 
Q 1338 1288 1338 2009 
Q 1338 2731 1133 3434 
Q 928 4138 513 4856 
z
" transform="scale(0.015625)"/>
      </defs>
      <use xlink:href="#DejaVuSans-54"/>
      <use xlink:href="#DejaVuSans-69" x="57.958984"/>
      <use xlink:href="#DejaVuSans-6d" x="85.742188"/>
      <use xlink:href="#DejaVuSans-65" x="183.154297"/>
      <use xlink:href="#DejaVuSans-20" x="244.677734"/>
      <use xlink:href="#DejaVuSans-28" x="276.464844"/>
      <use xlink:href="#DejaVuSans-73" x="315.478516"/>
      <use xlink:href="#DejaVuSans-29" x="367.578125"/>
     </g>
    </g>
   </g>
   <g id="matplotlib.axis_6">
    <g id="ytick_6">
     <g id="line2d_94">
      <path d="M 198.18 1100.993444 
L 1726.2 1100.993444 
" clip-path="url(#pa19f9cbb97)" style="fill: none; stroke: #b0b0b0; stroke-width: 0.8; stroke-linecap: square"/>
     </g>
     <g id="line2d_95">
      <g>
       <use xlink:href="#m26f55a2d0b" x="198.18" y="1100.993444" style="stroke: #000000; stroke-width: 0.8"/>
      </g>
     </g>
     <g id="text_23">
      <!-- 0.2 -->
      <g transform="translate(135.519063 1114.290709) scale(0.35 -0.35)">
       <use xlink:href="#DejaVuSans-30"/>
       <use xlink:href="#DejaVuSans-2e" x="63.623047"/>
       <use xlink:href="#DejaVuSans-32" x="95.410156"/>
      </g>
     </g>
    </g>
    <g id="ytick_7">
     <g id="line2d_96">
      <path d="M 198.18 955.078281 
L 1726.2 955.078281 
" clip-path="url(#pa19f9cbb97)" style="fill: none; stroke: #b0b0b0; stroke-width: 0.8; stroke-linecap: square"/>
     </g>
     <g id="line2d_97">
      <g>
       <use xlink:href="#m26f55a2d0b" x="198.18" y="955.078281" style="stroke: #000000; stroke-width: 0.8"/>
      </g>
     </g>
     <g id="text_24">
      <!-- 0.3 -->
      <g transform="translate(135.519063 968.375547) scale(0.35 -0.35)">
       <use xlink:href="#DejaVuSans-30"/>
       <use xlink:href="#DejaVuSans-2e" x="63.623047"/>
       <use xlink:href="#DejaVuSans-33" x="95.410156"/>
      </g>
     </g>
    </g>
    <g id="text_25">
     <!-- Z -->
     <g transform="translate(99.219894 1024.771029) rotate(-90) scale(0.35 -0.35)">
      <defs>
       <path id="DejaVuSans-5a" d="M 359 4666 
L 4025 4666 
L 4025 4184 
L 1075 531 
L 4097 531 
L 4097 0 
L 288 0 
L 288 481 
L 3238 4134 
L 359 4134 
L 359 4666 
z
" transform="scale(0.015625)"/>
      </defs>
      <use xlink:href="#DejaVuSans-5a"/>
     </g>
    </g>
   </g>
   <g id="line2d_98">
    <path d="M 267.774365 1137.472235 
L 1654.660882 1137.472235 
L 1654.660882 1137.472235 
" clip-path="url(#pa19f9cbb97)" style="fill: none; stroke-dasharray: 51.2,12.8,8,12.8; stroke-dashoffset: 0; stroke: #000000; stroke-width: 8"/>
   </g>
   <g id="line2d_99">
    <path d="M 267.635455 1136.934132 
L 324.172195 1138.077773 
L 364.317447 1138.633008 
L 412.936265 1139.09233 
L 428.772109 1139.111568 
L 429.188842 1138.799905 
L 429.744485 1138.101602 
L 430.43904 1136.791639 
L 431.133595 1135.003135 
L 431.96706 1132.226095 
L 432.939436 1128.112287 
L 433.911813 1123.04945 
L 435.300922 1114.415152 
L 437.245675 1101.131815 
L 439.329338 1085.29033 
L 441.690824 1065.480266 
L 449.608745 996.650045 
L 453.914984 960.427326 
L 456.971024 936.279704 
L 459.47142 918.329721 
L 461.693995 903.857058 
L 463.499836 893.489638 
L 465.166767 885.230379 
L 466.694787 878.795727 
L 468.083896 873.900582 
L 469.334095 870.265611 
L 470.584293 867.252667 
L 471.69558 865.08609 
L 472.806867 863.404683 
L 473.779244 862.333178 
L 474.612709 861.712626 
L 475.446175 861.354077 
L 476.27964 861.208526 
L 477.113105 861.276296 
L 477.946571 861.559029 
L 478.780036 862.057623 
L 479.752413 862.913124 
L 480.724789 864.064474 
L 481.836076 865.724291 
L 483.225185 868.211277 
L 484.614295 871.156032 
L 486.142315 874.928473 
L 487.809245 879.663146 
L 489.892909 886.222266 
L 492.115484 893.96049 
L 494.754791 904.048064 
L 499.338851 922.475989 
L 505.589842 948.726748 
L 514.757962 987.044158 
L 519.342022 1005.27339 
L 523.509349 1021.001032 
L 527.259944 1034.284694 
L 530.593805 1045.339396 
L 533.927667 1055.638955 
L 536.983707 1064.394476 
L 540.039747 1072.487368 
L 543.095787 1079.943253 
L 546.012916 1086.479422 
L 548.930045 1092.472682 
L 551.708264 1097.682746 
L 554.347571 1102.187683 
L 556.986878 1106.276319 
L 559.626185 1109.948899 
L 562.126582 1113.042836 
L 564.488067 1115.601333 
L 566.710642 1117.692927 
L 568.933216 1119.479631 
L 571.01688 1120.854157 
L 572.961633 1121.878663 
L 574.906385 1122.660444 
L 576.851138 1123.212366 
L 578.795891 1123.542227 
L 580.740644 1123.655996 
L 583.518862 1123.578954 
L 586.435991 1123.271562 
L 590.325496 1122.816368 
L 593.798269 1122.639439 
L 597.548864 1122.6896 
L 601.160547 1122.950546 
L 605.605696 1123.519134 
L 612.551242 1124.496267 
L 616.162925 1124.684855 
L 619.91352 1124.650998 
L 631.026393 1124.322823 
L 635.749364 1124.533575 
L 640.750156 1124.976049 
L 646.306593 1125.710288 
L 653.668871 1126.695961 
L 657.558376 1126.955517 
L 661.586793 1126.997365 
L 674.227685 1126.896075 
L 679.228478 1127.194961 
L 685.062736 1127.776617 
L 692.980658 1128.468605 
L 699.926204 1128.821249 
L 702.982244 1128.840314 
L 703.676798 1128.540716 
L 704.371353 1127.991602 
L 705.204818 1126.993748 
L 706.038284 1125.621968 
L 707.01066 1123.546128 
L 707.983036 1120.955533 
L 709.094324 1117.359968 
L 710.483433 1111.993025 
L 712.011453 1105.089181 
L 713.539473 1097.130818 
L 715.206404 1087.224511 
L 717.428978 1072.367756 
L 719.929375 1054.039532 
L 722.429771 1034.103002 
L 725.624722 1006.630397 
L 732.570267 947.007313 
L 734.792842 930.437122 
L 736.876505 916.532419 
L 738.265615 908.603963 
L 739.515813 902.612949 
L 740.766011 897.709131 
L 741.877298 894.257654 
L 742.849675 891.931125 
L 743.822051 890.205379 
L 744.655516 889.111713 
L 745.488982 888.374161 
L 746.183536 888.031543 
L 746.878091 887.935432 
L 747.572645 888.084736 
L 748.2672 888.478148 
L 748.961755 889.114205 
L 750.073042 890.520656 
L 751.32324 892.43238 
L 752.712349 894.97392 
L 754.101458 897.968133 
L 755.629478 901.797595 
L 758.268785 909.25504 
L 761.602647 919.285586 
L 765.07542 930.459771 
L 768.964925 943.69774 
L 773.271164 959.190266 
L 778.271956 978.048596 
L 792.024136 1030.382824 
L 795.63582 1042.857822 
L 798.830771 1053.14536 
L 801.886811 1062.269543 
L 804.80394 1070.315492 
L 807.721069 1077.738311 
L 810.499287 1084.227775 
L 813.416416 1090.479719 
L 816.194635 1095.906687 
L 819.111764 1101.085133 
L 821.889982 1105.569873 
L 824.6682 1109.63029 
L 827.446418 1113.314816 
L 830.085725 1116.459736 
L 833.002855 1119.588807 
L 835.781073 1122.250946 
L 838.559291 1124.601969 
L 841.47642 1126.779445 
L 844.254638 1128.576118 
L 847.310678 1130.289856 
L 850.227807 1131.6733 
L 853.561669 1133.018006 
L 856.895531 1134.118189 
L 860.785036 1135.160491 
L 864.813453 1135.995296 
L 869.397513 1136.733842 
L 874.259395 1137.280674 
L 879.399098 1137.640655 
L 885.233356 1137.837991 
L 892.734545 1137.87712 
L 905.236527 1137.697321 
L 948.021087 1137.020646 
L 969.274456 1137.03657 
L 1000.807233 1137.30708 
L 1119.298238 1138.570816 
L 1119.853882 1138.256333 
L 1120.548436 1137.583443 
L 1121.242991 1136.604546 
L 1122.076456 1135.028348 
L 1123.048833 1132.634845 
L 1124.021209 1129.640659 
L 1125.132496 1125.476838 
L 1126.382695 1119.844912 
L 1127.910715 1111.913942 
L 1129.577645 1101.993338 
L 1131.244576 1090.721982 
L 1133.189329 1075.943137 
L 1135.550815 1056.343171 
L 1138.190122 1032.510246 
L 1147.774975 941.526973 
L 1149.858638 924.649584 
L 1151.803391 910.73862 
L 1153.470322 900.285441 
L 1154.998342 892.005198 
L 1156.387451 885.574019 
L 1157.77656 880.192008 
L 1159.026758 876.243721 
L 1160.276956 872.996486 
L 1161.388244 870.656676 
L 1162.499531 868.834582 
L 1163.471907 867.666193 
L 1164.305373 866.981677 
L 1165.138838 866.586139 
L 1166.111215 866.358816 
L 1167.083591 866.361831 
L 1168.055967 866.599801 
L 1169.028344 867.075663 
L 1170.00072 867.791924 
L 1171.112007 868.90773 
L 1172.640027 870.820684 
L 1174.168047 873.08839 
L 1175.834978 875.962045 
L 1177.64082 879.556372 
L 1179.446662 883.66629 
L 1181.252504 888.337565 
L 1183.197256 894.01319 
L 1185.142009 900.366395 
L 1188.059138 910.831434 
L 1191.115178 922.660913 
L 1197.643991 949.40447 
L 1206.256467 984.508505 
L 1210.979438 1002.851628 
L 1215.424587 1019.258838 
L 1219.314093 1032.739977 
L 1222.786865 1044.000275 
L 1226.259638 1054.502742 
L 1229.454589 1063.453292 
L 1232.64954 1071.731483 
L 1235.70558 1079.036468 
L 1238.76162 1085.755511 
L 1241.678749 1091.642633 
L 1244.595878 1097.028291 
L 1247.374096 1101.694751 
L 1250.152315 1105.932143 
L 1252.791622 1109.563048 
L 1255.292018 1112.635025 
L 1257.792415 1115.348514 
L 1260.1539 1117.592145 
L 1262.376475 1119.410121 
L 1264.599049 1120.94258 
L 1266.682713 1122.12524 
L 1268.627465 1122.987535 
L 1270.572218 1123.617197 
L 1272.516971 1124.021348 
L 1274.739545 1124.250476 
L 1276.96212 1124.249875 
L 1279.740338 1123.988999 
L 1284.324398 1123.604995 
L 1288.352815 1123.492253 
L 1292.24232 1123.605309 
L 1296.548558 1123.970742 
L 1308.772718 1125.254933 
L 1311.967669 1125.191442 
L 1316.412818 1124.830055 
L 1324.747473 1124.158896 
L 1328.636978 1124.142258 
L 1332.804305 1124.338884 
L 1337.388365 1124.800498 
L 1343.361535 1125.670578 
L 1349.890347 1126.476976 
L 1354.474407 1126.799223 
L 1359.891933 1126.948839 
L 1366.004013 1127.118851 
L 1372.116093 1127.511492 
L 1390.730155 1128.992321 
L 1399.342631 1129.19788 
L 1400.037185 1128.951836 
L 1400.73174 1128.454996 
L 1401.565205 1127.523708 
L 1402.398671 1126.227228 
L 1403.371047 1124.250265 
L 1404.343424 1121.770729 
L 1405.454711 1118.317621 
L 1406.704909 1113.635807 
L 1408.232929 1106.869994 
L 1409.760949 1099.078302 
L 1411.42788 1089.400503 
L 1413.233722 1077.501022 
L 1415.456296 1061.15153 
L 1417.956693 1041.035062 
L 1420.596 1017.891118 
L 1424.624416 982.92029 
L 1427.958278 955.889325 
L 1430.041942 940.497845 
L 1431.986695 927.761649 
L 1433.792536 917.368723 
L 1435.181645 910.443252 
L 1436.431844 905.188673 
L 1437.682042 900.868614 
L 1438.793329 897.810479 
L 1439.765705 895.734047 
L 1440.738082 894.190871 
L 1441.710458 893.074762 
L 1442.543924 892.453641 
L 1443.238478 892.173275 
L 1443.933033 892.108402 
L 1444.627587 892.258577 
L 1445.322142 892.623189 
L 1446.155607 893.342745 
L 1447.266895 894.690031 
L 1448.656004 896.745416 
L 1450.184024 899.414256 
L 1451.712044 902.51858 
L 1453.378975 906.415717 
L 1455.323727 911.576924 
L 1457.685213 918.440016 
L 1460.185609 926.416968 
L 1463.519471 937.962423 
L 1467.270065 951.728762 
L 1473.382145 975.28641 
L 1481.577889 1007.011063 
L 1486.023038 1023.33844 
L 1490.051455 1037.310661 
L 1493.524227 1048.560452 
L 1496.858089 1058.619269 
L 1500.05304 1067.550365 
L 1503.10908 1075.428767 
L 1506.026209 1082.358452 
L 1508.804427 1088.422061 
L 1511.721556 1094.25039 
L 1514.499775 1099.327749 
L 1517.277993 1103.955489 
L 1520.195122 1108.395496 
L 1522.97334 1112.221438 
L 1525.751558 1115.673344 
L 1528.390865 1118.62203 
L 1531.169084 1121.385602 
L 1533.947302 1123.840964 
L 1536.586609 1125.883954 
L 1539.503738 1127.874404 
L 1542.420867 1129.592433 
L 1545.754729 1131.286389 
L 1548.94968 1132.671803 
L 1552.422453 1133.921608 
L 1555.895225 1134.938088 
L 1559.923642 1135.861763 
L 1563.952058 1136.54571 
L 1568.536118 1137.111953 
L 1574.648198 1137.615817 
L 1581.0381 1137.902062 
L 1588.539289 1137.998582 
L 1598.124142 1137.87846 
L 1640.491969 1137.072224 
L 1656.605635 1137.030149 
L 1656.605635 1137.030149 
" clip-path="url(#pa19f9cbb97)" style="fill: none; stroke: #de8f05; stroke-width: 8; stroke-linecap: square"/>
   </g>
   <g id="line2d_100">
    <path d="M 267.774365 1135.967734 
L 287.499715 1136.040607 
L 318.754669 1136.415789 
L 432.105971 1138.077366 
L 434.467456 1138.466526 
L 437.245675 1139.171659 
L 443.357755 1140.736944 
L 445.71924 1141.097923 
L 447.941815 1141.221858 
L 450.164389 1141.127549 
L 452.664785 1140.814132 
L 455.443004 1140.244336 
L 458.499044 1139.377281 
L 462.666371 1137.943537 
L 470.16756 1135.32777 
L 473.918155 1134.296414 
L 477.113105 1133.625491 
L 480.030235 1133.256648 
L 483.225185 1133.049716 
L 486.420136 1133.089213 
L 490.448553 1133.319168 
L 501.144693 1134.445104 
L 507.951327 1135.394073 
L 526.009745 1137.948862 
L 532.260736 1138.511614 
L 538.511727 1138.918818 
L 546.707471 1139.283073 
L 555.597769 1139.459215 
L 567.405196 1139.402258 
L 591.992427 1139.064387 
L 618.524411 1138.572673 
L 660.753327 1138.044346 
L 700.204025 1137.92322 
L 707.705215 1138.028179 
L 708.677591 1138.384752 
L 709.649967 1138.96726 
L 710.761255 1139.892827 
L 712.011453 1141.244697 
L 713.400562 1143.097008 
L 715.762047 1146.745473 
L 720.485018 1153.940883 
L 722.568682 1156.738589 
L 724.374524 1158.807744 
L 726.041455 1160.400985 
L 727.708385 1161.701569 
L 729.375316 1162.737136 
L 731.042247 1163.514927 
L 732.570267 1163.98828 
L 734.237198 1164.260583 
L 736.181951 1164.362009 
L 738.126704 1164.235465 
L 739.932545 1163.899125 
L 743.405318 1162.968555 
L 748.406111 1161.424323 
L 759.241162 1158.003496 
L 764.658687 1156.590137 
L 770.631856 1155.253705 
L 777.29958 1153.992383 
L 784.800769 1152.812383 
L 809.388 1149.146294 
L 826.890775 1145.968846 
L 849.11652 1141.964321 
L 859.81266 1140.345401 
L 869.675335 1139.079694 
L 878.1489 1138.212802 
L 887.872664 1137.439458 
L 897.874249 1136.871489 
L 909.403855 1136.447617 
L 922.878213 1136.174739 
L 938.852967 1136.084319 
L 961.356535 1136.195376 
L 1004.141095 1136.700636 
L 1108.602098 1138.039673 
L 1124.854675 1138.325982 
L 1127.077249 1138.685612 
L 1129.716556 1139.349983 
L 1134.995171 1140.742032 
L 1137.634478 1141.231409 
L 1139.995964 1141.43298 
L 1142.218538 1141.39927 
L 1144.580024 1141.135226 
L 1147.358242 1140.612354 
L 1150.414282 1139.802788 
L 1154.303787 1138.510971 
L 1163.332996 1135.416747 
L 1166.805769 1134.539307 
L 1169.583987 1134.070541 
L 1173.751315 1133.616727 
L 1176.807355 1133.49295 
L 1181.113593 1133.57267 
L 1184.586365 1133.872918 
L 1188.753693 1134.423974 
L 1200.56112 1136.357914 
L 1209.173596 1137.484328 
L 1217.647162 1138.395835 
L 1227.509836 1139.242669 
L 1234.316471 1139.6308 
L 1240.011818 1139.808411 
L 1248.902116 1139.855949 
L 1273.489347 1139.456701 
L 1302.243905 1138.726252 
L 1334.749058 1138.170113 
L 1378.505995 1137.882825 
L 1401.287384 1137.972968 
L 1402.25976 1138.297545 
L 1403.232136 1138.852345 
L 1404.343424 1139.75075 
L 1405.593622 1141.077742 
L 1406.982731 1142.904837 
L 1415.595207 1154.821355 
L 1417.817782 1157.324487 
L 1419.762535 1159.180836 
L 1421.707287 1160.707461 
L 1423.65204 1161.940807 
L 1425.457882 1162.821325 
L 1427.124813 1163.394052 
L 1429.069565 1163.843209 
L 1431.29214 1164.150388 
L 1433.514715 1164.236189 
L 1435.598378 1164.095835 
L 1438.237685 1163.68431 
L 1440.876993 1163.053095 
L 1444.766498 1161.834909 
L 1456.157193 1158.262179 
L 1462.686005 1156.568843 
L 1470.048284 1154.909021 
L 1477.827295 1153.394759 
L 1489.773633 1151.341108 
L 1502.831258 1149.027999 
L 1545.060175 1141.255812 
L 1554.367205 1139.916055 
L 1563.674236 1138.790546 
L 1573.536911 1137.82621 
L 1582.427209 1137.172693 
L 1592.845527 1136.632906 
L 1604.236222 1136.26236 
L 1617.71058 1136.057786 
L 1636.185731 1136.019608 
L 1656.744545 1136.17294 
L 1656.744545 1136.17294 
" clip-path="url(#pa19f9cbb97)" style="fill: none; stroke: #029e73; stroke-width: 8; stroke-linecap: square"/>
   </g>
   <g id="line2d_101"/>
   <g id="line2d_102"/>
   <g id="patch_15">
    <path d="M 198.18 1179.52 
L 198.18 846.047059 
" style="fill: none; stroke: #000000; stroke-width: 0.8; stroke-linejoin: miter; stroke-linecap: square"/>
   </g>
   <g id="patch_16">
    <path d="M 1726.2 1179.52 
L 1726.2 846.047059 
" style="fill: none; stroke: #000000; stroke-width: 0.8; stroke-linejoin: miter; stroke-linecap: square"/>
   </g>
   <g id="patch_17">
    <path d="M 198.18 1179.52 
L 1726.2 1179.52 
" style="fill: none; stroke: #000000; stroke-width: 0.8; stroke-linejoin: miter; stroke-linecap: square"/>
   </g>
   <g id="patch_18">
    <path d="M 198.18 846.047059 
L 1726.2 846.047059 
" style="fill: none; stroke: #000000; stroke-width: 0.8; stroke-linejoin: miter; stroke-linecap: square"/>
   </g>
  </g>
  <g id="text_26">
   <!-- End effector position (m) -->
   <g transform="translate(31.913438 909.84375) rotate(-90) scale(0.42 -0.42)">
    <defs>
     <path id="DejaVuSans-45" d="M 628 4666 
L 3578 4666 
L 3578 4134 
L 1259 4134 
L 1259 2753 
L 3481 2753 
L 3481 2222 
L 1259 2222 
L 1259 531 
L 3634 531 
L 3634 0 
L 628 0 
L 628 4666 
z
" transform="scale(0.015625)"/>
     <path id="DejaVuSans-66" d="M 2375 4863 
L 2375 4384 
L 1825 4384 
Q 1516 4384 1395 4259 
Q 1275 4134 1275 3809 
L 1275 3500 
L 2222 3500 
L 2222 3053 
L 1275 3053 
L 1275 0 
L 697 0 
L 697 3053 
L 147 3053 
L 147 3500 
L 697 3500 
L 697 3744 
Q 697 4328 969 4595 
Q 1241 4863 1831 4863 
L 2375 4863 
z
" transform="scale(0.015625)"/>
    </defs>
    <use xlink:href="#DejaVuSans-45"/>
    <use xlink:href="#DejaVuSans-6e" x="63.183594"/>
    <use xlink:href="#DejaVuSans-64" x="126.5625"/>
    <use xlink:href="#DejaVuSans-20" x="190.039062"/>
    <use xlink:href="#DejaVuSans-65" x="221.826172"/>
    <use xlink:href="#DejaVuSans-66" x="283.349609"/>
    <use xlink:href="#DejaVuSans-66" x="318.554688"/>
    <use xlink:href="#DejaVuSans-65" x="353.759766"/>
    <use xlink:href="#DejaVuSans-63" x="415.283203"/>
    <use xlink:href="#DejaVuSans-74" x="470.263672"/>
    <use xlink:href="#DejaVuSans-6f" x="509.472656"/>
    <use xlink:href="#DejaVuSans-72" x="570.654297"/>
    <use xlink:href="#DejaVuSans-20" x="611.767578"/>
    <use xlink:href="#DejaVuSans-70" x="643.554688"/>
    <use xlink:href="#DejaVuSans-6f" x="707.03125"/>
    <use xlink:href="#DejaVuSans-73" x="768.212891"/>
    <use xlink:href="#DejaVuSans-69" x="820.3125"/>
    <use xlink:href="#DejaVuSans-74" x="848.095703"/>
    <use xlink:href="#DejaVuSans-69" x="887.304688"/>
    <use xlink:href="#DejaVuSans-6f" x="915.087891"/>
    <use xlink:href="#DejaVuSans-6e" x="976.269531"/>
    <use xlink:href="#DejaVuSans-20" x="1039.648438"/>
    <use xlink:href="#DejaVuSans-28" x="1071.435547"/>
    <use xlink:href="#DejaVuSans-6d" x="1110.449219"/>
    <use xlink:href="#DejaVuSans-29" x="1207.861328"/>
   </g>
  </g>
 </g>
 <defs>
  <clipPath id="p3f2b09fd0b">
   <rect x="198.18" y="96.501176" width="1528.02" height="333.472941"/>
  </clipPath>
  <clipPath id="p574bb6fcdc">
   <rect x="198.18" y="471.274118" width="1528.02" height="333.472941"/>
  </clipPath>
  <clipPath id="pa19f9cbb97">
   <rect x="198.18" y="846.047059" width="1528.02" height="333.472941"/>
  </clipPath>
 </defs>
</svg>
